<svg id="travel_data_exchange" data-name="travel data exchange" xmlns="http://www.w3.org/2000/svg" viewBox="0 0 800 800"><title>travel_data-exchange</title><path d="M749.15,224.74s6,9.19,6,55.82-6,53.42-6,53.42-68.33,56.26-120.55,75.88c.17-.21,6-7.5,6-53.41,0-46.63-6-55.82-6-55.82Z" style="fill:#10294c;"/><path d="M749.15,224.74,628.59,300.63s-19.8-13.14-109.24-40.55S410.11,233.4,410.11,233.4s57-46.4,120.56-75.89c0,0,19.81-.73,109.24,26.68S749.15,224.74,749.15,224.74Z" style="fill:#f04e23;"/><path d="M628.59,300.63s6,9.19,6,55.82c0,45.91-5.83,53.2-6,53.41h0S589,406.79,519.35,384.92s-109.24-42.28-109.24-42.28-6-16.8-6-56.42,6-52.82,6-52.82,19.8-.73,109.24,26.68S628.59,300.63,628.59,300.63Z" style="fill:#fdb813;"/><path d="M739.07,303.43a17.73,17.73,0,0,1,1.35,4.51,25.06,25.06,0,0,1,.3,4.66,23.61,23.61,0,0,1-.61,4.65,16.29,16.29,0,0,1-1.67,4.41,1.87,1.87,0,0,1-2.56.69A1.85,1.85,0,0,1,735,321v0a34.47,34.47,0,0,1-.23-4.36c0-1.41,0-2.8.09-4.2s.14-2.8.26-4.21a32.33,32.33,0,0,1,.61-4.34v0a1.8,1.8,0,0,1,2.15-1.36A1.84,1.84,0,0,1,739.07,303.43Z" style="fill:#fff;"/><path d="M716.16,322.31a17.33,17.33,0,0,1,1.35,4.51,24.23,24.23,0,0,1,.3,4.66,23.61,23.61,0,0,1-.61,4.65,16.29,16.29,0,0,1-1.67,4.41,1.88,1.88,0,0,1-3.48-.68v0a36.44,36.44,0,0,1-.23-4.36c0-1.41,0-2.8.09-4.2s.14-2.8.26-4.21a32.33,32.33,0,0,1,.61-4.34v-.05a1.79,1.79,0,0,1,3.38-.36Z" style="fill:#fff;"/><path d="M727.62,311.93a17.31,17.31,0,0,1,1.34,4.51,24.33,24.33,0,0,1,.3,4.67,23.4,23.4,0,0,1-.6,4.64,16.84,16.84,0,0,1-1.67,4.41,1.88,1.88,0,0,1-3.49-.68v0a34.41,34.41,0,0,1-.23-4.35c0-1.42,0-2.81.08-4.21s.14-2.79.27-4.21a31.91,31.91,0,0,1,.6-4.33l0-.06a1.8,1.8,0,0,1,3.38-.36Z" style="fill:#fff;"/><path d="M604.25,280.93c-1.2-.57-2.63-1.2-4.26-1.85a1.59,1.59,0,0,0-1.45.15l-4.94,3.32a3.48,3.48,0,0,0-1.35,4,31.22,31.22,0,0,1,1.19,6.41,1.57,1.57,0,0,0,1,1.32c1.15.45,2.47,1,3.91,1.57a1.57,1.57,0,0,0,2.17-1.51,45.6,45.6,0,0,0-.75-6.39,1.57,1.57,0,0,1,.66-1.61l4-2.7A1.57,1.57,0,0,0,604.25,280.93Z" style="fill:#10294c;"/><path d="M618.11,286.46c-1.2-.57-2.62-1.21-4.25-1.86a1.56,1.56,0,0,0-1.45.16l-4.94,3.31a3.47,3.47,0,0,0-1.35,4,31.23,31.23,0,0,1,1.19,6.42,1.54,1.54,0,0,0,1,1.31c1.14.45,2.47,1,3.91,1.57a1.57,1.57,0,0,0,2.16-1.51,42.78,42.78,0,0,0-.75-6.39,1.59,1.59,0,0,1,.66-1.61l4-2.7A1.56,1.56,0,0,0,618.11,286.46Z" style="fill:#10294c;"/><path d="M641.67,202.74C625.06,210.53,608.39,221.13,601,226c7.39,2.12,22.37,6.54,35.71,11.21,19.21,6.73,33.63,12.55,37.55,14.16L713,227c-4.9-2-15.26-6-35.16-12.84C654.71,206.2,644.34,203.42,641.67,202.74Zm-25.31,23.8c-2.28,0-4.13-.87-4.13-1.94s1.85-1.94,4.13-1.94,4.13.87,4.13,1.94S618.64,226.54,616.36,226.54Zm26.39-16c-2.28,0-4.13-.87-4.13-1.95s1.85-1.94,4.13-1.94,4.13.87,4.13,1.94S645,210.54,642.75,210.54ZM673,245.69c-2.28,0-4.13-.87-4.13-1.94s1.85-1.94,4.13-1.94,4.12.87,4.12,1.94S675.24,245.69,673,245.69Zm26.39-19.89c2.28,0,4.13.87,4.13,1.94s-1.85,1.95-4.13,1.95-4.13-.87-4.13-1.95S697.07,225.8,699.35,225.8Z" style="fill:none;"/><ellipse cx="672.96" cy="243.75" rx="4.13" ry="1.94" style="fill:#fdb813;"/><path d="M699.35,229.69c2.28,0,4.13-.87,4.13-1.95s-1.85-1.94-4.13-1.94-4.13.87-4.13,1.94S697.07,229.69,699.35,229.69Z" style="fill:#fdb813;"/><path d="M616.36,222.66c-2.28,0-4.13.87-4.13,1.94s1.85,1.94,4.13,1.94,4.13-.87,4.13-1.94S618.64,222.66,616.36,222.66Z" style="fill:#fdb813;"/><ellipse cx="642.75" cy="208.59" rx="4.13" ry="1.94" style="fill:#fdb813;"/><path d="M718.71,224.64c-.24-.12-4.91-2.34-21.71-8.41l8-4a2.22,2.22,0,0,0-2-4l-11.71,5.9-.06,0c-3.55-1.26-7.52-2.65-12-4.19-27.54-9.51-36.94-11.66-37.33-11.75a2.17,2.17,0,0,0-1.42.15A301,301,0,0,0,613,213.24c-7.76-2.64-36.64-11.37-72.39-20.27a2.2,2.2,0,0,0-1.41.11c-.66.28-12.45,5.44-29.24,16.59-3.88-1.11-25.62-7.26-43.78-10.53a2.22,2.22,0,1,0-.79,4.36c14.79,2.67,32,7.27,39.78,9.43-4,2.76-8.18,5.83-12.53,9.23-5.31-1.49-28.82-8-46.48-11.19a2.21,2.21,0,0,0-.78,4.36c19.69,3.55,46.85,11.32,47.12,11.4a2.16,2.16,0,0,0,.62.09,2.24,2.24,0,0,0,1.37-.48c23-18.08,42-27.14,45.79-28.88,31.12,7.76,56.87,15.35,67.75,18.82-8,5-13.35,8.67-13.46,8.74a2.22,2.22,0,0,0,.68,4c.21.06,21.7,6,40,12.43,22.4,7.85,38.23,14.44,38.38,14.5a2.16,2.16,0,0,0,2-.17l43.27-27.23a2.22,2.22,0,0,0-.22-3.87Zm-44.45,26.74c-3.92-1.61-18.34-7.43-37.55-14.16-13.34-4.67-28.32-9.09-35.71-11.21,7.39-4.88,24.06-15.48,40.67-23.27,2.67.68,13,3.46,36.15,11.44C697.72,221,708.08,225,713,227Z" style="fill:#fdb813;"/><path d="M578.42,311.32s3.46,13.11,3.46,40-3.46,34.28-3.46,34.28-22.86-1.76-63-14.38-63-24.4-63-24.4-3.46-13.16-3.46-36,3.46-38.27,3.46-38.27,11.43-.42,63,15.39S578.42,311.32,578.42,311.32ZM573.2,378c.81-4.62,1.74-12.94,1.74-26.67,0-18.63-1.71-30.42-2.65-35.45-5.42-2.71-21.34-9.8-58.93-21.32-15.95-4.89-28-8.19-36.9-10.43s-14.7-3.37-18.41-4a207.31,207.31,0,0,0-2.21,30.67,170.1,170.1,0,0,0,2.59,31.27c7.28,3.45,28,12.77,59,22.53C544.9,373.23,564.19,376.7,573.2,378Z" style="fill:#fff;"/><path d="M574.94,351.33c0,13.73-.93,22.05-1.74,26.67-9-1.3-28.3-4.77-55.73-13.39-31.06-9.76-51.76-19.08-59-22.53a170.1,170.1,0,0,1-2.59-31.27,207.31,207.31,0,0,1,2.21-30.67c3.71.62,9.55,1.78,18.41,4l-10.31,6.68c-.77,5.07-1,5.6-.24,9.57,7,2.69,26.49,10,51.44,17.81,22,6.92,38.86,11.81,47.13,13.83.65-3.71-.14-6.2-.89-10.23l8.7-5.91C573.23,320.91,574.94,332.7,574.94,351.33Z" style="fill:#10294c;"/><path d="M572.29,315.88l-8.7,5.91c-4.36-2.18-22.1-8.75-52.3-18-25.52-7.82-39.15-12-45.14-13l10.31-6.68c8.94,2.24,21,5.54,36.9,10.43C551,306.08,566.87,313.17,572.29,315.88Z" style="fill:#00acdc;"/><path d="M563.59,321.79c.75,4,1.54,6.52.89,10.23-8.27-2-25.08-6.91-47.13-13.83-25-7.84-44.47-15.12-51.44-17.81-.75-4-.53-4.5.24-9.57,6,1,19.62,5.15,45.14,13C541.49,313,559.23,319.61,563.59,321.79Z" style="fill:#fff;"/><path d="M564.49,332c-8.28-2-25.09-6.91-47.13-13.83-25-7.84-44.48-15.12-51.45-17.81-.76-4-.53-4.5.24-9.57,6,1,19.62,5.15,45.13,13,30.21,9.26,48,15.83,52.31,18C564.34,325.82,565.13,328.31,564.49,332Z" style="fill:#fff;"/><path d="M523.3,391.82l-17.46,11.46Z" style="fill:none;"/><path d="M566.91,363.23l-32.12,21.06Z" style="fill:none;"/><path d="M503.52,404.8l-3.47,2.27Z" style="fill:none;"/><path d="M490.52,413.32l-3.73,2.45Z" style="fill:none;"/><path d="M440.59,446.08l-.54.36Z" style="fill:none;"/><path d="M464.5,430.39l-.17.11Z" style="fill:none;"/><path d="M441.68,445.37l-.65.42Z" style="fill:none;"/><path d="M444.35,443.61l-.71.47Z" style="fill:none;"/><path d="M445.23,443l-.23.15Z" style="fill:none;"/><path d="M570.51,360.87h0l-2.16,1.42Z" style="fill:none;"/><path d="M446.93,441.92l-.63.42Z" style="fill:none;"/><path d="M531.66,386.34,529.15,388Z" style="fill:none;"/><path d="M434.06,450.38l-.61.41Z" style="fill:none;"/><path d="M344.34,503.44a.69.69,0,0,1,.19-.19A.69.69,0,0,0,344.34,503.44Z" style="fill:none;"/><path d="M438.32,447.58l-.34.22Z" style="fill:none;"/><path d="M540.13,461.81c-1.2.31-2.44.6-3.7.86C537.69,462.41,538.93,462.12,540.13,461.81Z" style="fill:#10294c;"/><path d="M370.06,432.34S494.7,354.78,524.2,335.21L535,328.08c-3-.87-6-1.8-9.06-2.69l-12.42-3.78-.18-.06c.31,2.66.2,5.2-1.12,6.11l-11.7,7.79h0l-24.68,16.43a3.05,3.05,0,0,1-4.74-2.5c0-3.1-1.34-9.37-2.25-10.83a3.05,3.05,0,0,1,.92-4.17l27.82-18.12c-2.9-1-5.79-2-8.66-3.09q-6.09-2.26-12.16-4.63L472.86,307c-16.91,10.52-73.05,45.62-93.8,60.86a58.08,58.08,0,0,0-11.15,11.52,11.79,11.79,0,0,1,3.5-1.09,14.87,14.87,0,0,1,5,.1,19.84,19.84,0,0,1,4.75,1.48,22.53,22.53,0,0,1,4.3,2.5,24.23,24.23,0,0,1,6.69,7.44,22.46,22.46,0,0,1,2.89,9.59h0v.17s0-.11,0-.16a8.89,8.89,0,0,1-.68,4.7,10.66,10.66,0,0,1-2.71,3.65c-.13.12-.32.28-.49.41l-.38.27-.76.51-1.5,1-3,2.05q-6,4.06-12.13,8l-6.11,4c-.51.33-1,.65-1.6,1a9.74,9.74,0,0,1-2,.93L363,426a5.1,5.1,0,0,1-.79,0,3.35,3.35,0,0,1-1.59-.5,5.11,5.11,0,0,1-1.69-1.93,10.19,10.19,0,0,1-.45-.95l-.18-.46c-.06-.16-.12-.32-.17-.42l-.3-.7a5.32,5.32,0,0,0-.37-.66,6.48,6.48,0,0,0-2.16-2.1,11.35,11.35,0,0,0-6.44-1.21h-.06a.75.75,0,0,1-.26,0c-2.56,8.74-3.08,16.13-.39,19.79C351.09,440.91,357.87,440.45,370.06,432.34Zm45.83-63,37.05-24.11a2.27,2.27,0,0,1,1.07-.36c2.34-.15,3.25,2.52,3.69,3.8,0,.12,3.83,11.76.65,14L422,386.88a3,3,0,0,1-4.74-2.49c0-3.1-1.33-9.38-2.25-10.84A3.05,3.05,0,0,1,415.89,369.38Z" style="fill:#f04e23;"/><path d="M502.88,318.08l-3.49,2.27c.16.4.29.77.39,1.06a42.73,42.73,0,0,1,1.69,7.35c0,.22.06.44.08.64l7.49-5a23.94,23.94,0,0,0-.51-4.44Z" style="fill:#fdb813;"/><path d="M486.82,328.54c.11.28.2.53.27.74a42.32,42.32,0,0,1,1.67,7.67c0,.31.08.61.11.89l8.45-5.62a37.35,37.35,0,0,0-1.73-9.39Z" style="fill:#fdb813;"/><path d="M473.17,337.42a40.76,40.76,0,0,1,2.14,9.44l9.29-6.17A38.64,38.64,0,0,0,483,331Z" style="fill:#fdb813;"/><path d="M447.64,363.77l.09.64,7.48-5a37,37,0,0,0-1.68-9.26l-8,5.19c.16.39.29.77.4,1.06A42.77,42.77,0,0,1,447.64,363.77Z" style="fill:#fdb813;"/><path d="M434.94,372c0,.32.07.62.1.9l8.46-5.63a37.48,37.48,0,0,0-1.74-9.39L433,363.55c.11.27.2.53.27.73A42.27,42.27,0,0,1,434.94,372Z" style="fill:#fdb813;"/><path d="M430.77,375.69a38.78,38.78,0,0,0-1.59-9.67l-9.84,6.41a40.63,40.63,0,0,1,2.15,9.44Z" style="fill:#fdb813;"/><path d="M367.3,381a.55.55,0,0,1-.54-.08,127.31,127.31,0,0,0-17.82,34.88,13.59,13.59,0,0,1,3.48-.31,11.31,11.31,0,0,1,3.9.88,8.74,8.74,0,0,1,3.27,2.59,8.52,8.52,0,0,1,.61.87l.51.92c.29.58.5,1,.77,1.44a2.14,2.14,0,0,0,.7.74c.07.05.08,0,.12,0l.12,0,.21-.07a8.28,8.28,0,0,0,1.23-.72c.45-.31.93-.67,1.42-1l5.86-4.26q5.88-4.21,11.8-8.36l3-2.06,1.48-1,.75-.52.36-.25.2-.17a6.4,6.4,0,0,0,1.57-2.14,4.46,4.46,0,0,0,.38-2.38v-.1a.17.17,0,0,0,0-.07,19.41,19.41,0,0,0-2.13-8,20.91,20.91,0,0,0-2.3-3.55,22.15,22.15,0,0,0-2.95-3.1,21.38,21.38,0,0,0-7.46-4.24,12.51,12.51,0,0,0-8.49.11Zm-.73,12.47a44.81,44.81,0,0,1-1.46,4.92c-.55,1.59-1.16,3.14-1.81,4.68a42.29,42.29,0,0,1-2.16,4.51,25.13,25.13,0,0,1-2.95,4.27h0a.6.6,0,0,1-.84.06.62.62,0,0,1-.2-.37,14.6,14.6,0,0,1,.36-5.38,24.82,24.82,0,0,1,1.78-4.91,31.39,31.39,0,0,1,2.6-4.53,19.54,19.54,0,0,1,3.54-4,.71.71,0,0,1,1,.09.72.72,0,0,1,.15.61Zm2.77-7.17a1.29,1.29,0,0,1,1.11.72v0a3.42,3.42,0,0,1,.43,1.46,2.13,2.13,0,0,1-.19,1,1.33,1.33,0,0,1-.75.7,3.28,3.28,0,0,1-1.72.1h0a1.42,1.42,0,0,1-.92-.57,3.12,3.12,0,0,1-.65-1.59,1.38,1.38,0,0,1,.33-1,2.17,2.17,0,0,1,.87-.65A3.2,3.2,0,0,1,369.34,386.26Z" style="fill:#fdb813;"/><path d="M417.22,384.39a3.05,3.05,0,0,0,4.74,2.49l36.39-24.21c3.18-2.2-.61-13.84-.65-14-.44-1.28-1.35-3.95-3.69-3.8a2.27,2.27,0,0,0-1.07.36l-37.05,24.11a3.05,3.05,0,0,0-.92,4.17C415.89,375,417.19,381.29,417.22,384.39Zm36.31-34.22a37,37,0,0,1,1.68,9.26l-7.48,5-.09-.64a42.77,42.77,0,0,0-1.68-7.35c-.11-.29-.24-.67-.4-1.06Zm-11.77,7.66a37.48,37.48,0,0,1,1.74,9.39L435,372.85c0-.28-.06-.58-.1-.9a42.27,42.27,0,0,0-1.68-7.67c-.07-.2-.16-.46-.27-.73ZM429.18,366a38.78,38.78,0,0,1,1.59,9.67l-9.28,6.18a40.63,40.63,0,0,0-2.15-9.44Z" style="fill:#10294c;"/><path d="M395,399.35h0c0,.05,0,.11,0,.16Z" style="fill:#10294c;"/><path d="M321.89,438c-1.77.87-3.48,1.84-5.17,2.85s-3.33,2.06-5,3.13-3.25,2.2-4.83,3.36-3.15,2.35-4.65,3.64a.86.86,0,0,0,.94,1.43c1.78-.87,3.49-1.84,5.18-2.84s3.34-2.05,5-3.12,3.26-2.18,4.85-3.34,3.15-2.34,4.65-3.63a.89.89,0,0,0-1-1.48Z" style="fill:#00acdc;"/><path d="M334.26,388.19c-1.77.87-3.48,1.85-5.16,2.85s-3.34,2.07-5,3.14-3.25,2.19-4.83,3.36-3.15,2.34-4.64,3.63a.87.87,0,0,0-.21,1,.86.86,0,0,0,1.15.39c1.77-.87,3.48-1.83,5.17-2.84s3.34-2.05,5-3.11,3.26-2.19,4.84-3.35,3.15-2.33,4.65-3.62a.88.88,0,0,0,.22-1.08A.9.9,0,0,0,334.26,388.19Z" style="fill:#00acdc;"/><path d="M444,470.2c-1.77.87-3.48,1.84-5.16,2.85s-3.34,2.06-5,3.14-3.25,2.19-4.83,3.35-3.15,2.35-4.64,3.64a.86.86,0,0,0,.94,1.43c1.77-.87,3.48-1.84,5.17-2.84s3.34-2,5-3.12,3.25-2.18,4.84-3.34,3.15-2.34,4.65-3.62a.88.88,0,0,0,.22-1.08A.9.9,0,0,0,444,470.2Z" style="fill:#00acdc;"/><path d="M556.74,333.78q-2.29,1.46-4.58,2.94c-2.24,1.5-4.47,3-6.66,4.57s-4.36,3.14-6.46,4.84a.85.85,0,0,0,.94,1.42c2.38-1.26,4.7-2.63,7-4s4.56-2.85,6.82-4.32,4.47-3,6.66-4.54l0,0c-1.08-.23-2.15-.48-3.21-.73Z" style="fill:#00acdc;"/><path d="M412.74,513.29c-1.77.87-3.48,1.85-5.16,2.85s-3.34,2.07-5,3.14-3.25,2.19-4.83,3.36-3.15,2.34-4.65,3.64a.86.86,0,0,0,.94,1.42c1.78-.87,3.49-1.83,5.18-2.84s3.34-2.05,5-3.11,3.25-2.19,4.84-3.35,3.15-2.33,4.65-3.62a.9.9,0,0,0-1-1.49Z" style="fill:#00acdc;"/><path d="M358.1,520.44c1.63-1.09,3.25-2.19,4.84-3.34s3.15-2.34,4.65-3.63a.9.9,0,0,0,.22-1.08.91.91,0,0,0-1.2-.41c-1.77.88-3.48,1.85-5.16,2.86s-3.34,2.06-5,3.13q-2.16,1.44-4.26,2.95l0,0,1.45.57.14.06c.47.19.94.4,1.43.62l0,0C356.25,521.63,357.17,521,358.1,520.44Z" style="fill:#f04e23;"/><path d="M514.2,444.44c-5.62,3.14-11,6.59-16.42,10.12s-10.65,7.2-15.75,11.14a.86.86,0,0,0,.94,1.43C488.6,464,494,460.55,499.41,457s10.67-7.17,15.77-11.11a.88.88,0,0,0,.24-1.14A.9.9,0,0,0,514.2,444.44Z" style="fill:#00acdc;"/><path d="M536.71,432.18a.85.85,0,0,0-.22,1.09.86.86,0,0,0,1.17.34c5.63-3.14,11.05-6.58,16.43-10.1l1.09-.73h0c-.06-1.17-.11-2.31-.13-3.42h0L552.47,421C547.12,424.6,541.81,428.24,536.71,432.18Z" style="fill:#00acdc;"/><path d="M427.85,322.74c-5.62,3.14-11,6.6-16.41,10.13s-10.66,7.19-15.76,11.13a.86.86,0,0,0,.94,1.43c5.64-3.14,11.06-6.58,16.44-10.1s10.67-7.17,15.77-11.1a.89.89,0,0,0-1-1.49Z" style="fill:#f04e23;"/><path d="M285.9,403.22c5.36-3.54,10.67-7.17,15.77-11.1a.89.89,0,0,0-1-1.49c-5.62,3.14-11,6.6-16.41,10.13-1.06.7-2.11,1.4-3.15,2.11,0,.11,0,.21,0,.32.12.83.23,1.65.34,2.46,0,.13,0,.26.05.38C283,405.1,284.46,404.17,285.9,403.22Z" style="fill:#f04e23;"/><path d="M327,426.38a10.21,10.21,0,0,0-2.1.83,17.93,17.93,0,0,0-3.69,2.45,11,11,0,0,0-1.58,1.62.93.93,0,0,0-.16.78.91.91,0,0,0,1.1.65,10.88,10.88,0,0,0,2.11-.82,18.49,18.49,0,0,0,3.71-2.42,11,11,0,0,0,1.59-1.61.94.94,0,0,0-1-1.48Z" style="fill:#00acdc;"/><path d="M369.58,337.51c-2.19,1.28-4.33,2.63-6.49,3.93l-6.42,4c-4.28,2.7-8.51,5.47-12.73,8.24s-8.42,5.6-12.58,8.48l-6.23,4.32c-2.06,1.47-4.13,2.92-6.17,4.42a.87.87,0,0,0-.23,1.12.86.86,0,0,0,1.17.31c2.19-1.28,4.33-2.62,6.5-3.92l6.42-4c4.28-2.69,8.51-5.46,12.74-8.23s8.43-5.59,12.59-8.46l6.24-4.31c2.06-1.47,4.13-2.91,6.17-4.42a.89.89,0,0,0-1-1.49Z" style="fill:#00acdc;"/><path d="M558.61,378c-2.19,1.28-4.33,2.62-6.49,3.93l-6.42,4c-4.28,2.69-8.51,5.46-12.73,8.24s-8.42,5.6-12.58,8.47L514.16,407c-2.06,1.48-4.13,2.92-6.17,4.43a.86.86,0,0,0,.94,1.43c2.19-1.28,4.33-2.62,6.5-3.93l6.42-4c4.29-2.69,8.52-5.46,12.75-8.22s8.42-5.59,12.58-8.46l6.24-4.32c2.06-1.47,4.14-2.91,6.17-4.41a.9.9,0,0,0,.24-1.17A.89.89,0,0,0,558.61,378Z" style="fill:#00acdc;"/><path d="M466,502.56c4.21-2.79,8.43-5.59,12.59-8.46l6.24-4.31c2.05-1.48,4.13-2.92,6.16-4.42a.89.89,0,0,0-1-1.49c-2.18,1.28-4.32,2.62-6.49,3.93l-6.42,4c-4.28,2.7-8.5,5.47-12.73,8.24q-5,3.36-10.06,6.77h0c1.41.12,2.84.29,4.28.49h0Q462.36,505,466,502.56Z" style="fill:#f04e23;"/><path d="M433,464.48a.89.89,0,0,0-1-1.48c-2.18,1.27-4.32,2.62-6.49,3.93l-6.42,4c-4.28,2.7-8.5,5.47-12.73,8.25s-8.42,5.59-12.57,8.47L387.52,492c-2,1.48-4.13,2.92-6.16,4.43a.84.84,0,0,0-.23,1.12.86.86,0,0,0,1.17.3c2.18-1.27,4.33-2.61,6.49-3.92l6.43-4c4.28-2.69,8.51-5.46,12.74-8.23s8.42-5.58,12.59-8.46l6.23-4.31C428.84,467.43,430.92,466,433,464.48Z" style="fill:#f04e23;"/><path d="M293.48,429.71a11.07,11.07,0,0,0-2.1.83A18.85,18.85,0,0,0,287.7,433a10.47,10.47,0,0,0-1.58,1.61.93.93,0,0,0-.16.78.9.9,0,0,0,1.1.65,10.74,10.74,0,0,0,2.11-.82,17.68,17.68,0,0,0,3.7-2.42,10.46,10.46,0,0,0,1.59-1.6.94.94,0,0,0-1-1.49Z" style="fill:#00acdc;"/><path d="M505,367.15c-1.77.87-3.48,1.85-5.16,2.85s-3.34,2.07-5,3.14-3.25,2.19-4.83,3.36-3.15,2.34-4.64,3.63a.87.87,0,0,0-.21,1,.86.86,0,0,0,1.15.39c1.77-.87,3.48-1.83,5.17-2.84s3.34-2.05,5-3.11,3.26-2.19,4.84-3.35,3.16-2.33,4.65-3.62a.9.9,0,0,0-1-1.49Z" style="fill:#f04e23;"/><path d="M502,430.17c1.77-.87,3.48-1.83,5.17-2.84s3.34-2.05,5-3.12,3.25-2.18,4.84-3.34,3.15-2.33,4.65-3.62a.9.9,0,0,0-1-1.49c-1.77.87-3.48,1.84-5.16,2.85s-3.34,2.06-5,3.14-3.25,2.19-4.83,3.35-3.15,2.35-4.65,3.64a.88.88,0,0,0-.21,1A.87.87,0,0,0,502,430.17Z" style="fill:#f04e23;"/><path d="M415.21,493.86a28.71,28.71,0,0,0-3.2,1.56c-1,.58-2,1.21-3,1.85s-1.95,1.33-2.88,2.07a26.82,26.82,0,0,0-2.69,2.34.9.9,0,0,0-.19.93.88.88,0,0,0,1.14.5,25.67,25.67,0,0,0,3.21-1.55c1-.56,2-1.19,3-1.82s2-1.33,2.89-2.05a28.28,28.28,0,0,0,2.7-2.34.92.92,0,0,0-1-1.49Z" style="fill:#f04e23;"/><path d="M324.21,383.7a11.28,11.28,0,0,0,2.16-.85,19.18,19.18,0,0,0,2-1.12,18.32,18.32,0,0,0,1.82-1.36,11.47,11.47,0,0,0,1.64-1.63,1,1,0,0,0,.17-.83.94.94,0,0,0-1.15-.66,11.62,11.62,0,0,0-2.15.86,18.27,18.27,0,0,0-2,1.15,17.2,17.2,0,0,0-1.81,1.37,11.49,11.49,0,0,0-1.63,1.64.9.9,0,0,0,.94,1.43Z" style="fill:#f04e23;"/><path d="M353.43,392.06a28.19,28.19,0,0,0,2.76-2.38.91.91,0,0,0-1-1.49,26.81,26.81,0,0,0-3.27,1.61c-1.06.58-2.08,1.23-3.09,1.89s-2,1.36-2.94,2.11a27,27,0,0,0-2.76,2.39.87.87,0,0,0,.94,1.43,30.26,30.26,0,0,0,3.29-1.59c1.06-.59,2.08-1.23,3.1-1.88S352.47,392.8,353.43,392.06Z" style="fill:#f04e23;"/><path d="M390.52,339.94a11.07,11.07,0,0,0-2.1.83,17.48,17.48,0,0,0-1.92,1.12,18.88,18.88,0,0,0-1.76,1.33,10.54,10.54,0,0,0-1.58,1.62.86.86,0,0,0-.16.78.9.9,0,0,0,1.1.65,11.4,11.4,0,0,0,2.11-.82,15.87,15.87,0,0,0,1.92-1.1,15.17,15.17,0,0,0,1.78-1.32,10.46,10.46,0,0,0,1.59-1.6,1,1,0,0,0,.17-.82A1,1,0,0,0,390.52,339.94Z" style="fill:#f04e23;"/><path d="M293.48,444.3a9.88,9.88,0,0,0-2.1.83,18.23,18.23,0,0,0-3.68,2.45,10.11,10.11,0,0,0-1.58,1.62.91.91,0,0,0-.16.77.89.89,0,0,0,1.1.65,10.71,10.71,0,0,0,2.11-.81,18,18,0,0,0,1.92-1.1,16.39,16.39,0,0,0,1.78-1.32,10.54,10.54,0,0,0,1.59-1.61.94.94,0,0,0-1-1.48Z" style="fill:#f04e23;"/><path d="M524.77,359.86a11.07,11.07,0,0,0-2.1.83,18.85,18.85,0,0,0-3.68,2.46,10.47,10.47,0,0,0-1.58,1.61.9.9,0,0,0-.16.78.89.89,0,0,0,1.1.65,10.74,10.74,0,0,0,2.11-.82,16.4,16.4,0,0,0,1.92-1.09,17.82,17.82,0,0,0,1.78-1.32,11,11,0,0,0,1.59-1.61.94.94,0,0,0-1-1.49Z" style="fill:#f04e23;"/><path d="M436.06,491.37a3.18,3.18,0,0,0-1.18.22,4.65,4.65,0,0,0-1.83,1.24,3.05,3.05,0,0,0-.66,1,.91.91,0,0,0-.08.37,1,1,0,0,0,1,1.05,3.23,3.23,0,0,0,1.19-.21,4.86,4.86,0,0,0,1-.48,4.5,4.5,0,0,0,.85-.72,3.14,3.14,0,0,0,.67-1,1.1,1.1,0,0,0,.08-.4A1.07,1.07,0,0,0,436.06,491.37Z" style="fill:#f04e23;"/><path d="M398,309.24a3.14,3.14,0,0,0,1.18-.21,4.3,4.3,0,0,0,1-.49,4.11,4.11,0,0,0,.85-.71,3.07,3.07,0,0,0,.67-1,1.07,1.07,0,0,0-1-1.48,3.14,3.14,0,0,0-1.18.22,4.92,4.92,0,0,0-1.84,1.23,3.32,3.32,0,0,0-.65,1,1,1,0,0,0-.08.37A1,1,0,0,0,398,309.24Z" style="fill:#00acdc;"/><path d="M295.48,374a3.09,3.09,0,0,0-1.17.22,4.49,4.49,0,0,0-1,.51,4.12,4.12,0,0,0-.84.73,3.22,3.22,0,0,0-.66,1,1.11,1.11,0,0,0-.08.37,1,1,0,0,0,1,1.05,3.19,3.19,0,0,0,1.19-.21,4.76,4.76,0,0,0,1.86-1.2,3.31,3.31,0,0,0,.67-1,1.1,1.1,0,0,0,.08-.4A1.08,1.08,0,0,0,295.48,374Z" style="fill:#00acdc;"/><path d="M376.21,359.25a3.14,3.14,0,0,0-1.18.22,4.38,4.38,0,0,0-1,.5,4.9,4.9,0,0,0-.85.73,3.53,3.53,0,0,0-.66,1,1.16,1.16,0,0,0-.07.37,1,1,0,0,0,1,1.06,3.14,3.14,0,0,0,1.18-.21,4.3,4.3,0,0,0,1-.49,4.11,4.11,0,0,0,.85-.71,3.19,3.19,0,0,0,.67-1,1.07,1.07,0,0,0-1-1.48Z" style="fill:#00acdc;"/><path d="M351.37,360.92a3.1,3.1,0,0,0-1.18.23,4.45,4.45,0,0,0-1,.5,4.84,4.84,0,0,0-.84.73,3.34,3.34,0,0,0-.66,1,1.43,1.43,0,0,0-.08.37,1,1,0,0,0,1,1.06,3.19,3.19,0,0,0,1.19-.21,4.76,4.76,0,0,0,1.86-1.2,3.31,3.31,0,0,0,.67-1,1.06,1.06,0,0,0,.08-.4A1.09,1.09,0,0,0,351.37,360.92Z" style="fill:#f04e23;"/><path d="M312.86,421.41a3.19,3.19,0,0,0,1.19-.21,4.76,4.76,0,0,0,1.86-1.2,3.31,3.31,0,0,0,.67-1,1.06,1.06,0,0,0,.08-.4,1.08,1.08,0,0,0-1.06-1.09,3.1,3.1,0,0,0-1.18.23,4.18,4.18,0,0,0-1,.5,4.56,4.56,0,0,0-.85.73,3.34,3.34,0,0,0-.66,1,1.11,1.11,0,0,0-.07.37A1,1,0,0,0,312.86,421.41Z" style="fill:#f04e23;"/><path d="M512,431.15a4.6,4.6,0,0,0-1.84,1.24,3.22,3.22,0,0,0-.66,1,1.11,1.11,0,0,0-.08.37,1,1,0,0,0,1,1.05,3.41,3.41,0,0,0,1.19-.2,5.46,5.46,0,0,0,1-.49,4.91,4.91,0,0,0,.86-.72,3.12,3.12,0,0,0,.66-1,1.11,1.11,0,0,0,.09-.4,1.08,1.08,0,0,0-1.07-1.09A3.29,3.29,0,0,0,512,431.15Z" style="fill:#00acdc;"/><path d="M456.2,473a3.1,3.1,0,0,0-1.18.22,4.21,4.21,0,0,0-1,.51,4.17,4.17,0,0,0-.85.73,3.4,3.4,0,0,0-.66,1,1.11,1.11,0,0,0-.07.37,1,1,0,0,0,1,1.05,3.19,3.19,0,0,0,1.19-.21,4.76,4.76,0,0,0,1.86-1.2,3.14,3.14,0,0,0,.67-1,1.1,1.1,0,0,0,.08-.4A1.07,1.07,0,0,0,456.2,473Z" style="fill:#00acdc;"/><path d="M553.18,393.45a3.31,3.31,0,0,0-1.18.22,4.21,4.21,0,0,0-1,.51,4.5,4.5,0,0,0-.85.73,3.4,3.4,0,0,0-.66,1,1.11,1.11,0,0,0-.07.37,1,1,0,0,0,1,1,3.19,3.19,0,0,0,1.19-.21,4.86,4.86,0,0,0,1-.48,4.91,4.91,0,0,0,.86-.72,3.14,3.14,0,0,0,.67-1,1.1,1.1,0,0,0,.08-.4A1.07,1.07,0,0,0,553.18,393.45Z" style="fill:#00acdc;"/><path d="M474.51,391.11a3.31,3.31,0,0,0-1.18.22,4.21,4.21,0,0,0-1,.51,4.5,4.5,0,0,0-.85.73,3.4,3.4,0,0,0-.66,1,1.11,1.11,0,0,0-.07.37,1,1,0,0,0,1,1.06,3.66,3.66,0,0,0,1.19-.21,4.42,4.42,0,0,0,1-.49,4.17,4.17,0,0,0,.86-.72,3.14,3.14,0,0,0,.67-1,1.06,1.06,0,0,0,.08-.4A1.07,1.07,0,0,0,474.51,391.11Z" style="fill:#00acdc;"/><path d="M447.62,448.74a3.09,3.09,0,0,0-1.17.22,4.49,4.49,0,0,0-1,.51,4.39,4.39,0,0,0-.84.72,3.34,3.34,0,0,0-.66,1,1.23,1.23,0,0,0-.08.37,1,1,0,0,0,1,1.06,3.19,3.19,0,0,0,1.19-.21,4.76,4.76,0,0,0,1.86-1.2,3.06,3.06,0,0,0,.66-1,.9.9,0,0,0,.09-.4A1.07,1.07,0,0,0,447.62,448.74Z" style="fill:#00acdc;"/><path d="M369.6,500.12a11.16,11.16,0,0,0-2.11.83,18.85,18.85,0,0,0-3.68,2.46,11.47,11.47,0,0,0-1.58,1.61.93.93,0,0,0-.16.78.91.91,0,0,0,1.1.65,10.28,10.28,0,0,0,2.11-.82,17.39,17.39,0,0,0,1.93-1.09,18.71,18.71,0,0,0,1.78-1.33,10.94,10.94,0,0,0,1.59-1.6.95.95,0,0,0-1-1.49Z" style="fill:#00acdc;"/><path d="M399.27,332.12a.89.89,0,0,0,1.2.41c1.78-.87,3.48-1.84,5.17-2.85s3.33-2.06,5-3.13,3.25-2.2,4.83-3.36,3.15-2.35,4.65-3.64a.86.86,0,0,0-.94-1.43c-1.78.87-3.49,1.84-5.18,2.84s-3.34,2.05-5,3.12-3.26,2.18-4.84,3.34-3.16,2.34-4.66,3.63A.9.9,0,0,0,399.27,332.12Z" style="fill:#00acdc;"/><path d="M286.48,380.32c-1.77.87-3.48,1.84-5.17,2.84l-1.85,1.13c-.07,1.13-.08,2.28,0,3.46,1.14-.77,2.26-1.55,3.37-2.36,1.59-1.16,3.15-2.35,4.65-3.64a.88.88,0,0,0,.21-1A.87.87,0,0,0,286.48,380.32Z" style="fill:#00acdc;"/><path d="M517.29,459a.89.89,0,0,0,1,1.48c5.63-3.14,11.05-6.59,16.42-10.12s10.65-7.2,15.75-11.14a.86.86,0,0,0-.94-1.43c-5.63,3.14-11.06,6.58-16.44,10.1S522.4,455.1,517.29,459Z" style="fill:#f04e23;"/><path d="M484.57,427.27a.9.9,0,0,0-.94-1.43,10.74,10.74,0,0,0-2.11.82,17.26,17.26,0,0,0-1.92,1.09,16.48,16.48,0,0,0-1.78,1.33,10.46,10.46,0,0,0-1.59,1.6.94.94,0,0,0,1,1.49,11.07,11.07,0,0,0,2.1-.83,18.85,18.85,0,0,0,3.68-2.46A10.47,10.47,0,0,0,484.57,427.27Z" style="fill:#f04e23;"/><path d="M537.58,415.4a11.4,11.4,0,0,0-2.11.82,17.33,17.33,0,0,0-1.92,1.1,16.39,16.39,0,0,0-1.78,1.32,10.94,10.94,0,0,0-1.59,1.6,1,1,0,0,0-.17.82,1,1,0,0,0,1.15.67,11.07,11.07,0,0,0,2.1-.83,19.16,19.16,0,0,0,1.92-1.11,17.38,17.38,0,0,0,1.76-1.34,10.11,10.11,0,0,0,1.58-1.62.86.86,0,0,0,.16-.78A.9.9,0,0,0,537.58,415.4Z" style="fill:#00acdc;"/><path d="M468.49,462.77a11,11,0,0,0,1.59-1.61.91.91,0,0,0-.95-1.43,10.74,10.74,0,0,0-2.11.82,17.26,17.26,0,0,0-1.92,1.09,16.48,16.48,0,0,0-1.78,1.33,10.46,10.46,0,0,0-1.59,1.6,1,1,0,0,0-.17.82,1,1,0,0,0,1.15.67,11.07,11.07,0,0,0,2.1-.83,18.09,18.09,0,0,0,3.68-2.46Z" style="fill:#00acdc;"/><path d="M494.76,467.45a11.7,11.7,0,0,0-2.16.85,19.27,19.27,0,0,0-2,1.13,16.79,16.79,0,0,0-1.82,1.35,12,12,0,0,0-1.64,1.63,1,1,0,0,0-.17.83.94.94,0,0,0,1.15.66,11.62,11.62,0,0,0,2.15-.86,18.27,18.27,0,0,0,2-1.15,17.1,17.1,0,0,0,1.81-1.36,11.57,11.57,0,0,0,1.63-1.65.9.9,0,0,0-.94-1.43Z" style="fill:#f04e23;"/><path d="M479.82,442.78a26.14,26.14,0,0,0-3.28,1.59c-1.07.58-2.09,1.22-3.1,1.87s-2,1.36-3,2.1a26.73,26.73,0,0,0-2.76,2.38.91.91,0,0,0,1,1.48,27.62,27.62,0,0,0,3.28-1.6c1-.59,2.07-1.23,3.08-1.89s2-1.37,2.95-2.11a29.41,29.41,0,0,0,2.75-2.39.88.88,0,0,0,.19-.94A.86.86,0,0,0,479.82,442.78Z" style="fill:#f04e23;"/><path d="M470.34,486.34a3.41,3.41,0,0,0-1.19.2,4.89,4.89,0,0,0-1,.49,4.51,4.51,0,0,0-.86.72,3.14,3.14,0,0,0-.67,1,1.06,1.06,0,0,0-.08.4,1.07,1.07,0,0,0,1.06,1.09,3.31,3.31,0,0,0,1.18-.22,4.21,4.21,0,0,0,1-.51,4.5,4.5,0,0,0,.85-.73,3.4,3.4,0,0,0,.66-1,1.11,1.11,0,0,0,.07-.37A1,1,0,0,0,470.34,486.34Z" style="fill:#f04e23;"/><path d="M530.49,411.14a4.18,4.18,0,0,0,1-.5,4.9,4.9,0,0,0,.85-.73,3.53,3.53,0,0,0,.66-1,1.16,1.16,0,0,0,.07-.37,1,1,0,0,0-1-1.06,3.19,3.19,0,0,0-1.19.21,4.76,4.76,0,0,0-1.86,1.2,3.31,3.31,0,0,0-.67,1,1.07,1.07,0,0,0,1,1.48A3.1,3.1,0,0,0,530.49,411.14Z" style="fill:#f04e23;"/><path d="M546.28,457.15a.91.91,0,0,0,.22-1.08.89.89,0,0,0-1.2-.41c-1.78.87-3.48,1.84-5.17,2.85s-3.33,2.06-5,3.13l-2.65,1.81h0l.28-.06,1.46-.28.44-.08,1.68-.35h.06c1.26-.26,2.5-.55,3.7-.86h0l1.47-1C543.21,459.62,544.78,458.43,546.28,457.15Z" style="fill:#00acdc;"/><path d="M436,288.69a.92.92,0,0,0,1,1.49,28.19,28.19,0,0,0,3.22-1.57c1-.58,2-1.21,3-1.86.68-.46,1.35-.93,2-1.42-.34,0-.69,0-1-.05H444l-.86-.07-.24,0-.89-.1-.19,0-1.11-.16h0c-.68.47-1.36.95-2,1.46A27,27,0,0,0,436,288.69Z" style="fill:#00acdc;"/><path d="M410.33,294.36a.89.89,0,0,0,1,1.49c5.63-3.14,11.05-6.6,16.42-10.13l4.23-2.84h0l-3.66-1.05h0l-2.2,1.43C420.74,286.8,415.43,290.43,410.33,294.36Z" style="fill:#00acdc;"/><path d="M390.07,300l6.24-4.32c2.05-1.47,4.13-2.92,6.16-4.42a.86.86,0,0,0-.94-1.43c-2.19,1.28-4.33,2.62-6.49,3.92l-6.43,4-2.83,1.81,0,.09c-.26.75-.54,1.48-.83,2.2l-.05.14c-.3.73-.61,1.45-.95,2.14,0,0,0,0,0,0Q387,302.16,390.07,300Z" style="fill:#f04e23;"/><path d="M357,318.81c-2.05,1.47-4.13,2.91-6.17,4.42a.9.9,0,0,0,1,1.49c2.18-1.28,4.32-2.63,6.49-3.93l6.42-4c1.31-.83,2.61-1.68,3.92-2.52h0c-1,.17-2,.33-3,.46h0c-1,.13-2.06.24-3.1.34h0Z" style="fill:#f04e23;"/><path d="M459.37,298l-6.24,4.31c-2.05,1.47-4.13,2.91-6.16,4.42a.89.89,0,0,0,1,1.49c2.18-1.28,4.32-2.63,6.49-3.93l6.42-4c1.54-1,3.13-2,4.66-3,0-.73.08-1.36.15-2.23,0,0,.1-1.26.12-1.42l-.08.06v0Q462.52,295.87,459.37,298Z" style="fill:#f04e23;"/><path d="M431.33,302.92a26.55,26.55,0,0,0-3.22,1.55c-1,.56-2,1.19-3,1.83s-1.95,1.32-2.89,2.05a25.66,25.66,0,0,0-2.69,2.33.89.89,0,0,0-.2,1,.91.91,0,0,0,1.18.52,27.06,27.06,0,0,0,3.2-1.56c1-.57,2-1.2,3-1.85s1.94-1.33,2.87-2.06a28.28,28.28,0,0,0,2.69-2.35.88.88,0,0,0-.94-1.43Z" style="fill:#f04e23;"/><path d="M394,319.7a3.35,3.35,0,0,0-1.18.21,4.3,4.3,0,0,0-1,.49,4.11,4.11,0,0,0-.85.71,3.31,3.31,0,0,0-.67,1,1.06,1.06,0,0,0-.08.4,1.08,1.08,0,0,0,1.06,1.09,3.14,3.14,0,0,0,1.18-.23,4.38,4.38,0,0,0,1-.5,4.5,4.5,0,0,0,.85-.73,3.53,3.53,0,0,0,.66-1,1.11,1.11,0,0,0,.07-.37A1,1,0,0,0,394,319.7Z" style="fill:#f04e23;"/><path d="M340.42,338.38a11.07,11.07,0,0,0,2.1-.83,18.09,18.09,0,0,0,3.68-2.46,11,11,0,0,0,1.59-1.61.93.93,0,0,0,.16-.78.9.9,0,0,0-1.11-.65,10.74,10.74,0,0,0-2.11.82,17.26,17.26,0,0,0-1.92,1.09,19,19,0,0,0-1.78,1.32,11,11,0,0,0-1.59,1.61,1,1,0,0,0-.17.82A1,1,0,0,0,340.42,338.38Z" style="fill:#00acdc;"/><path d="M350.32,379.69a1,1,0,0,0-.17.82,1,1,0,0,0,1.15.67,10.46,10.46,0,0,0,2.1-.84,16,16,0,0,0,1.92-1.11,18.7,18.7,0,0,0,1.77-1.34,11,11,0,0,0,1.58-1.62.9.9,0,0,0-.94-1.42,10.28,10.28,0,0,0-2.11.82,17.39,17.39,0,0,0-1.93,1.09,19,19,0,0,0-1.78,1.32A10.54,10.54,0,0,0,350.32,379.69Z" style="fill:#00acdc;"/><path d="M551.77,332.59l-.85-.2q-3.24-.84-6.46-1.71L517,348.51,488.1,367.08l-57.86,37-58,36.75-29.06,18.29L320.28,473.4c2.35.88,4.46,1.7,6.37,2.45l25.17-16.12C359.25,454.94,467.9,385.89,551.77,332.59Z" style="fill:#fff;"/><path d="M370.8,438.58l57.85-37,58-36.77,29.05-18.3L542.08,330l-3.72-1c-1.14-.3-2.27-.62-3.4-.94l-10.76,7.13c-29.5,19.57-154.14,97.13-154.14,97.13-12.19,8.11-19,8.57-21.92,4.57l-29.21,18.5-17.57,11.36,1,.33c6.11,2,11.32,3.87,15.78,5.51l23.8-15.44Z" style="fill:#fff;"/><path d="M574.36,333.4v0Z" style="fill:#10294c;"/><path d="M433.45,450.79l.61-.41L438,447.8l.34-.22,1.73-1.14.54-.36.44-.29.65-.42,2-1.29.71-.47.65-.42.23-.15,1.07-.7.63-.42,17.4-11.42.17-.11,22.29-14.62,3.73-2.45,9.53-6.25,3.47-2.27c.77-.51,1.54-1,2.32-1.52l17.46-11.46q2.91-1.89,5.85-3.83l2.51-1.65,3.13-2,32.12-21.06,1.44-.94,2.16-1.42c0-2,0-4,0-5.95l-27.1,18.37-28.16,18.95L458.83,430l-56.59,37.49-28.35,18.66-28.41,18.56a.86.86,0,0,1-1.19-.25,1,1,0,0,1,0-.1h0c-.05,2-.13,3.87-.23,5.51,41.92-27.66,83.36-55,89.11-58.84Z" style="fill:#fff;"/><path d="M396.12,455.76l58.26-39,58.41-38.73,29.26-19.28,28.31-18.51c0-1.43-.06-2.86-.1-4.29C489,389.06,400.19,447.14,400.19,447.14s-26.53,17.68-57,38a40.77,40.77,0,0,1,.82,5.76l23-15.61Z" style="fill:#fff;"/><path d="M574.82,358.05l0,0c0-2.08.08-4.29.08-6.69,0-.92,0-1.92,0-3Q575,353.2,574.82,358.05Z" style="fill:#fff;"/><path d="M344.53,503.25l28.09-19.06,28.15-18.95L457.2,427.5,513.77,390l28.35-18.67,28.4-18.56c0-1.56,0-3.13,0-4.7,0-1.88,0-3.76-.08-5.64l-27,18.33-29.08,19.56L456,419.26,397.59,458l-29.27,19.27L344.16,493c.15,2.73.21,6.18.11,10.5h0l.07-.09A.69.69,0,0,1,344.53,503.25Z" style="fill:#fff;"/><path d="M574.41,334.47c0,.47.06.95.09,1.42,0-.85-.09-1.69-.14-2.49v-.08h0l0,0C574.36,333.71,574.39,334.09,574.41,334.47Z" style="fill:#fff;"/><path d="M365.42,392.72a19.54,19.54,0,0,0-3.54,4,31.39,31.39,0,0,0-2.6,4.53,24.82,24.82,0,0,0-1.78,4.91,14.6,14.6,0,0,0-.36,5.38.62.62,0,0,0,.2.37.6.6,0,0,0,.84-.06h0a25.13,25.13,0,0,0,2.95-4.27A42.29,42.29,0,0,0,363.3,403c.65-1.54,1.26-3.09,1.81-4.68a44.81,44.81,0,0,0,1.46-4.92h0a.72.72,0,0,0-.15-.61A.71.71,0,0,0,365.42,392.72Z" style="fill:#fff;"/><path d="M366.64,388.14a3.12,3.12,0,0,0,.65,1.59,1.42,1.42,0,0,0,.92.57h0a3.28,3.28,0,0,0,1.72-.1,1.33,1.33,0,0,0,.75-.7,2.13,2.13,0,0,0,.19-1,3.42,3.42,0,0,0-.43-1.46v0a1.29,1.29,0,0,0-1.11-.72,3.2,3.2,0,0,0-1.5.23,2.17,2.17,0,0,0-.87.65A1.38,1.38,0,0,0,366.64,388.14Z" style="fill:#fff;"/><path d="M574.82,358.05q.15-4.85.1-9.69V348c0-4-.18-8.1-.42-12.14,0-.47,0-.95-.09-1.42s0-.76-.08-1.13l0,0c0-.16,0-.35,0-.49-.06-.7-.12-1.43-.19-2.16-.1-1.27-.22-2.54-.35-3.82,0-.57-.08-1-.08-1L572,327l-2,1.3h0L564.48,332l-.09,0c-4.12-1-8.22-2.15-12.31-3.31l-.25-.07c-4.1-1.17-8.18-2.38-12.27-3.6q-12.4-3.72-24.74-7.63t-24.57-8.15c-8.16-2.83-16.28-5.75-24.34-8.85h0a7.28,7.28,0,0,1-.39-3.09c-1.53,1-3.12,2-4.66,3l-6.42,4c-2.17,1.3-4.31,2.65-6.49,3.93a.89.89,0,0,1-1-1.49c2-1.51,4.11-2.95,6.16-4.42l6.24-4.31q3.15-2.18,6.33-4.3v0c.11-.79.26-1.72.44-2.9l10.31-6.68c-3.58-.89-10.29-2.49-18.37-4l0,.06c-3.34,4-7.78,5.32-12.85,5.18-.66.49-1.33,1-2,1.42-1,.65-2,1.28-3,1.86a28.19,28.19,0,0,1-3.22,1.57.92.92,0,0,1-1-1.49,27,27,0,0,1,2.71-2.34c.66-.51,1.34-1,2-1.46a82.62,82.62,0,0,1-8.72-2l-4.23,2.84c-5.37,3.53-10.79,7-16.42,10.13a.89.89,0,0,1-1-1.49c5.1-3.93,10.41-7.56,15.77-11.1l2.2-1.43c-10.17-3-20.85-6.28-29.64-3.24-8.23,2.84-10,12.72-12.91,21.12l0-.09,2.83-1.81,6.43-4c2.16-1.3,4.3-2.64,6.49-3.92a.86.86,0,0,1,.94,1.43c-2,1.5-4.11,2.95-6.16,4.42L390.07,300q-3.06,2.13-6.17,4.2s0,0,0,0a15.38,15.38,0,0,1-5.56,6.69,27.67,27.67,0,0,1-9.69,3.36h0c-1.31.84-2.61,1.69-3.92,2.52l-6.42,4c-2.17,1.3-4.31,2.65-6.49,3.93a.9.9,0,0,1-1-1.49c2-1.51,4.12-3,6.17-4.42L362.5,315h0c-10.07.93-20.89.62-27,5.28-10.94,8.37-8.17,28-16.86,36.33-10.16,9.72-28.28,7.82-35.7,16.89-5.59,6.82-3.34,19-1.8,29.65,0-.11,0-.21,0-.32,1-.71,2.09-1.41,3.15-2.11,5.37-3.53,10.79-7,16.41-10.13a.89.89,0,0,1,1,1.49c-5.1,3.93-10.41,7.56-15.77,11.1-1.44.95-2.88,1.88-4.34,2.81,0-.12,0-.25-.05-.38.84,6.28,1.18,11.85-.86,15.19-8.48,14-16,24.41-18.3,35.36,1.64.11,10.54,1.12,39,10.57l17.57-11.36,29.21-18.5c-2.69-3.66-2.17-11.05.39-19.79a.75.75,0,0,0,.26,0h.06a11.35,11.35,0,0,1,6.44,1.21,6.48,6.48,0,0,1,2.16,2.1,5.32,5.32,0,0,1,.37.66l.3.7c.05.1.11.26.17.42l.18.46a10.19,10.19,0,0,0,.45.95,5.11,5.11,0,0,0,1.69,1.93,3.35,3.35,0,0,0,1.59.5,5.1,5.1,0,0,0,.79,0l.67-.16a9.74,9.74,0,0,0,2-.93c.57-.33,1.09-.65,1.6-1l6.11-4q6.09-4,12.13-8l3-2.05,1.5-1,.76-.51.38-.27c.17-.13.36-.29.49-.41a10.66,10.66,0,0,0,2.71-3.65,8.89,8.89,0,0,0,.68-4.7,22.46,22.46,0,0,0-2.89-9.59,24.23,24.23,0,0,0-6.69-7.44,22.53,22.53,0,0,0-4.3-2.5,19.84,19.84,0,0,0-4.75-1.48,14.87,14.87,0,0,0-5-.1,11.79,11.79,0,0,0-3.5,1.09,58.08,58.08,0,0,1,11.15-11.52c20.75-15.24,76.89-50.34,93.8-60.86l3.86,1.58q6.06,2.37,12.16,4.63c2.87,1.09,5.76,2.1,8.66,3.09l-27.82,18.12a3.05,3.05,0,0,0-.92,4.17c.91,1.46,2.22,7.73,2.25,10.83a3.05,3.05,0,0,0,4.74,2.5l24.68-16.43h0l11.7-7.79c1.32-.91,1.43-3.45,1.12-6.11l.18.06,12.42,3.78c3,.89,6,1.82,9.06,2.69,1.13.32,2.26.64,3.4.94l3.72,1L515.7,346.51l-29.05,18.3-58,36.77-57.85,37-28.87,18.59-23.8,15.44,2.15.79,22.89-14.29,29.06-18.29,58-36.75,57.86-37L517,348.51l27.49-17.83q3.22.87,6.46,1.71l.85.2c-83.87,53.3-192.52,122.35-199.95,127.14l-25.17,16.12c12.54,5,15.9,7.32,15.9,7.32a7.72,7.72,0,0,1,.65,2c30.46-20.35,57-38,57-38S489,389.06,570.26,336c0,1.43.07,2.86.1,4.29l-28.31,18.51-29.26,19.28L454.38,416.8l-58.26,39-29.07,19.56-23,15.61c.05.65.1,1.35.14,2.1l24.16-15.79L397.59,458,456,419.26l58.27-38.94,29.08-19.56,27-18.33c0,1.88.07,3.76.08,5.64,0,1.57,0,3.14,0,4.7l-28.4,18.56L513.77,390,457.2,427.5l-56.43,37.74-28.15,18.95-28.09,19.06a.69.69,0,0,0-.19.19l-.07.09a.88.88,0,0,0,0,.79h0a1,1,0,0,0,0,.1.86.86,0,0,0,1.19.25l28.41-18.56,28.35-18.66L458.83,430l56.44-37.72,28.16-18.95,27.1-18.37c0,2,0,4,0,5.95h0l-2.16,1.42-1.44.94-32.12,21.06-3.13,2L529.15,388q-2.94,1.93-5.85,3.83l-17.46,11.46c-.78.5-1.55,1-2.32,1.52l-3.47,2.27-9.53,6.25-3.73,2.45L464.5,430.39l-.17.11-17.4,11.42-.63.42-1.07.7-.23.15-.65.42-.71.47-2,1.29-.65.42-.44.29-.54.36-1.73,1.14-.34.22-3.92,2.58-.61.41-.32.2c-5.75,3.82-47.19,31.18-89.11,58.84a73.35,73.35,0,0,1-1.14,9.87c2.61-.65,5.82-.08,9.37,1.24l0,0q2.1-1.51,4.26-2.95c1.64-1.07,3.29-2.13,5-3.13s3.39-2,5.16-2.86a.91.91,0,0,1,1.2.41.9.9,0,0,1-.22,1.08c-1.5,1.29-3.06,2.48-4.65,3.63s-3.21,2.25-4.84,3.34c-.93.6-1.85,1.19-2.79,1.77l0,0c14.29,6.48,32.72,21.92,41.82,18.82,13.09-4.46,32.55-27.58,44.22-32.71,3.82-1.67,8.32-1.85,13-1.44h0q5-3.42,10.06-6.77c4.23-2.77,8.45-5.54,12.73-8.24l6.42-4c2.17-1.31,4.31-2.65,6.49-3.93a.89.89,0,0,1,1,1.49c-2,1.5-4.11,2.94-6.16,4.42l-6.24,4.31c-4.16,2.87-8.38,5.67-12.59,8.46q-3.67,2.42-7.38,4.8h0c9.83,1.39,20.05,4.08,26.82.34,12.33-6.79,13.69-30,24-37,6.31-4.29,14.94-5.69,23-7.21l2.65-1.81c1.64-1.07,3.29-2.13,5-3.13s3.39-2,5.17-2.85a.89.89,0,0,1,1.2.41.91.91,0,0,1-.22,1.08c-1.5,1.28-3.07,2.47-4.65,3.62l-1.47,1c4.16-1.08,7.88-2.5,10.64-4.81,7.43-6.2,5.06-21.68,4.38-34.21l-1.09.73c-5.38,3.52-10.8,7-16.43,10.1a.86.86,0,0,1-1.17-.34.85.85,0,0,1,.22-1.09c5.1-3.94,10.41-7.58,15.76-11.14l2.58-1.68c-.13-5.65.37-10.38,2.75-12.84,8-8.24,11.44-16.09,14.39-22.86l1-5.66c.15-.84.3-1.8.44-2.89h0c.25-1.87.5-4.14.71-6.84a45,45,0,0,0,.4-7.16c0-1,.07-2,.1-3.08Zm-287.39,23.7c-1.5,1.29-3.06,2.48-4.65,3.64-1.11.81-2.23,1.59-3.37,2.36,0-1.18,0-2.33,0-3.46l1.85-1.13c1.69-1,3.4-2,5.17-2.84a.87.87,0,0,1,1.16.4A.88.88,0,0,1,287.43,381.75Zm9-6.3a3.31,3.31,0,0,1-.67,1,4.76,4.76,0,0,1-1.86,1.2,3.19,3.19,0,0,1-1.19.21,1,1,0,0,1-1-1.05,1.11,1.11,0,0,1,.08-.37,3.22,3.22,0,0,1,.66-1,4.12,4.12,0,0,1,.84-.73,4.49,4.49,0,0,1,1-.51,3.09,3.09,0,0,1,1.17-.22,1.08,1.08,0,0,1,1.07,1.09A1.1,1.1,0,0,1,296.47,375.45Zm-2,70.33a10.54,10.54,0,0,1-1.59,1.61,16.39,16.39,0,0,1-1.78,1.32,18,18,0,0,1-1.92,1.1,10.71,10.71,0,0,1-2.11.81A.89.89,0,0,1,286,450a.91.91,0,0,1,.16-.77,10.11,10.11,0,0,1,1.58-1.62,18.23,18.23,0,0,1,3.68-2.45,9.88,9.88,0,0,1,2.1-.83.94.94,0,0,1,1,1.48Zm0-14.58a10.46,10.46,0,0,1-1.59,1.6,17.68,17.68,0,0,1-3.7,2.42,10.74,10.74,0,0,1-2.11.82.9.9,0,0,1-1.1-.65.93.93,0,0,1,.16-.78A10.47,10.47,0,0,1,287.7,433a18.85,18.85,0,0,1,3.68-2.46,11.07,11.07,0,0,1,2.1-.83.94.94,0,0,1,1,1.49Zm45-94.31a11,11,0,0,1,1.59-1.61,19,19,0,0,1,1.78-1.32,17.26,17.26,0,0,1,1.92-1.09,10.74,10.74,0,0,1,2.11-.82.9.9,0,0,1,1.11.65.93.93,0,0,1-.16.78,11,11,0,0,1-1.59,1.61,18.09,18.09,0,0,1-3.68,2.46,11.07,11.07,0,0,1-2.1.83,1,1,0,0,1-1.15-.67A1,1,0,0,1,339.44,336.89ZM311.92,420a3.34,3.34,0,0,1,.66-1,4.56,4.56,0,0,1,.85-.73,4.18,4.18,0,0,1,1-.5,3.1,3.1,0,0,1,1.18-.23,1.08,1.08,0,0,1,1.06,1.09,1.06,1.06,0,0,1-.08.4,3.31,3.31,0,0,1-.67,1,4.76,4.76,0,0,1-1.86,1.2,3.19,3.19,0,0,1-1.19.21,1,1,0,0,1-1-1.06A1.11,1.11,0,0,1,311.92,420Zm10.95,19.48c-1.5,1.29-3.07,2.48-4.65,3.63s-3.21,2.25-4.85,3.34-3.29,2.12-5,3.12-3.4,2-5.18,2.84a.86.86,0,0,1-.94-1.43c1.5-1.29,3.06-2.48,4.65-3.64s3.2-2.26,4.83-3.36,3.29-2.13,5-3.13,3.4-2,5.17-2.85a.89.89,0,0,1,1,1.48Zm5.09-11.6a11,11,0,0,1-1.59,1.61,18.49,18.49,0,0,1-3.71,2.42,10.88,10.88,0,0,1-2.11.82.91.91,0,0,1-1.1-.65.93.93,0,0,1,.16-.78,11,11,0,0,1,1.58-1.62,17.93,17.93,0,0,1,3.69-2.45,10.21,10.21,0,0,1,2.1-.83.94.94,0,0,1,1,1.48Zm7.28-38.18c-1.5,1.29-3.06,2.47-4.65,3.62s-3.21,2.26-4.84,3.35-3.3,2.12-5,3.11-3.4,2-5.17,2.84a.86.86,0,0,1-1.15-.39.87.87,0,0,1,.21-1c1.49-1.29,3.06-2.48,4.64-3.63s3.2-2.27,4.83-3.36,3.29-2.14,5-3.14,3.39-2,5.16-2.85a.9.9,0,0,1,1.2.41A.88.88,0,0,1,335.24,389.68Zm-12-7.41a11.49,11.49,0,0,1,1.63-1.64,17.2,17.2,0,0,1,1.81-1.37,18.27,18.27,0,0,1,2-1.15,11.62,11.62,0,0,1,2.15-.86.94.94,0,0,1,1.15.66,1,1,0,0,1-.17.83,11.47,11.47,0,0,1-1.64,1.63,18.32,18.32,0,0,1-1.82,1.36,19.18,19.18,0,0,1-2,1.12,11.28,11.28,0,0,1-2.16.85.9.9,0,0,1-.94-1.43ZM347.38,396a30.26,30.26,0,0,1-3.29,1.59.87.87,0,0,1-.94-1.43,27,27,0,0,1,2.76-2.39c.95-.75,1.94-1.44,2.94-2.11s2-1.31,3.09-1.89a26.81,26.81,0,0,1,3.27-1.61.91.91,0,0,1,1,1.49,28.19,28.19,0,0,1-2.76,2.38c-1,.74-1.95,1.42-2.95,2.09S348.44,395.44,347.38,396Zm5-33.62a3.31,3.31,0,0,1-.67,1,4.76,4.76,0,0,1-1.86,1.2,3.19,3.19,0,0,1-1.19.21,1,1,0,0,1-1-1.06,1.43,1.43,0,0,1,.08-.37,3.34,3.34,0,0,1,.66-1,4.84,4.84,0,0,1,.84-.73,4.45,4.45,0,0,1,1-.5,3.1,3.1,0,0,1,1.18-.23,1.09,1.09,0,0,1,1.06,1.09A1.06,1.06,0,0,1,352.35,362.41Zm1.34,14.35a17.39,17.39,0,0,1,1.93-1.09,10.28,10.28,0,0,1,2.11-.82.9.9,0,0,1,.94,1.42,11,11,0,0,1-1.58,1.62,18.7,18.7,0,0,1-1.77,1.34,16,16,0,0,1-1.92,1.11,10.46,10.46,0,0,1-2.1.84,1,1,0,0,1-1.15-.67,1,1,0,0,1,.17-.82,10.54,10.54,0,0,1,1.59-1.61A19,19,0,0,1,353.69,376.76Zm22.11,4.09a21.38,21.38,0,0,1,7.46,4.24,22.15,22.15,0,0,1,2.95,3.1,20.91,20.91,0,0,1,2.3,3.55,19.41,19.41,0,0,1,2.13,8,.17.17,0,0,1,0,.07v.1a4.46,4.46,0,0,1-.38,2.38,6.4,6.4,0,0,1-1.57,2.14l-.2.17-.36.25-.75.52-1.48,1-3,2.06q-5.93,4.14-11.8,8.36l-5.86,4.26c-.49.35-1,.71-1.42,1a8.28,8.28,0,0,1-1.23.72l-.21.07-.12,0s-.05,0-.12,0a2.14,2.14,0,0,1-.7-.74c-.27-.43-.48-.86-.77-1.44l-.51-.92a8.52,8.52,0,0,0-.61-.87,8.74,8.74,0,0,0-3.27-2.59,11.31,11.31,0,0,0-3.9-.88,13.59,13.59,0,0,0-3.48.31,127.31,127.31,0,0,1,17.82-34.88.55.55,0,0,0,.54.08h0A12.51,12.51,0,0,1,375.8,380.85ZM370.56,339c-2,1.51-4.11,2.95-6.17,4.42l-6.24,4.31c-4.16,2.87-8.37,5.67-12.59,8.46s-8.46,5.54-12.74,8.23l-6.42,4c-2.17,1.3-4.31,2.64-6.5,3.92a.86.86,0,0,1-1.17-.31.87.87,0,0,1,.23-1.12c2-1.5,4.11-2.95,6.17-4.42l6.23-4.32c4.16-2.88,8.37-5.68,12.58-8.48s8.45-5.54,12.73-8.24l6.42-4c2.16-1.3,4.3-2.65,6.49-3.93a.89.89,0,0,1,1,1.49Zm6.63,21.73a3.19,3.19,0,0,1-.67,1,4.11,4.11,0,0,1-.85.71,4.3,4.3,0,0,1-1,.49,3.14,3.14,0,0,1-1.18.21,1,1,0,0,1-1-1.06,1.16,1.16,0,0,1,.07-.37,3.53,3.53,0,0,1,.66-1A4.9,4.9,0,0,1,374,360a4.38,4.38,0,0,1,1-.5,3.14,3.14,0,0,1,1.18-.22,1.07,1.07,0,0,1,1,1.48Zm27-33.31c1.58-1.16,3.2-2.25,4.84-3.34s3.29-2.12,5-3.12,3.4-2,5.18-2.84a.86.86,0,0,1,.94,1.43c-1.5,1.29-3.06,2.48-4.65,3.64s-3.2,2.26-4.83,3.36-3.29,2.13-5,3.13-3.39,2-5.17,2.85a.89.89,0,0,1-1-1.48C401,329.76,402.56,328.57,404.15,327.42Zm-7.08-19.61a3.32,3.32,0,0,1,.65-1,4.92,4.92,0,0,1,1.84-1.23,3.14,3.14,0,0,1,1.18-.22,1.07,1.07,0,0,1,1,1.48,3.07,3.07,0,0,1-.67,1,4.11,4.11,0,0,1-.85.71,4.3,4.3,0,0,1-1,.49,3.14,3.14,0,0,1-1.18.21,1,1,0,0,1-1-1.06A1,1,0,0,1,397.07,307.81Zm-5.57,33.62a10.46,10.46,0,0,1-1.59,1.6,15.17,15.17,0,0,1-1.78,1.32,15.87,15.87,0,0,1-1.92,1.1,11.4,11.4,0,0,1-2.11.82.9.9,0,0,1-1.1-.65.86.86,0,0,1,.16-.78,10.54,10.54,0,0,1,1.58-1.62,18.88,18.88,0,0,1,1.76-1.33,17.48,17.48,0,0,1,1.92-1.12,11.07,11.07,0,0,1,2.1-.83,1,1,0,0,1,1.15.67A1,1,0,0,1,391.5,341.43Zm3.48-20.3a3.53,3.53,0,0,1-.66,1,4.5,4.5,0,0,1-.85.73,4.38,4.38,0,0,1-1,.5,3.14,3.14,0,0,1-1.18.23,1.08,1.08,0,0,1-1.06-1.09,1.06,1.06,0,0,1,.08-.4,3.31,3.31,0,0,1,.67-1,4.11,4.11,0,0,1,.85-.71,4.3,4.3,0,0,1,1-.49,3.35,3.35,0,0,1,1.18-.21,1,1,0,0,1,1,1.06A1.11,1.11,0,0,1,395,321.13Zm33.85,3.1c-5.1,3.93-10.41,7.55-15.77,11.1s-10.8,7-16.44,10.1a.86.86,0,0,1-.94-1.43c5.1-3.94,10.4-7.57,15.76-11.13s10.79-7,16.41-10.13a.89.89,0,0,1,1,1.49Zm3.44-19.88a28.28,28.28,0,0,1-2.69,2.35c-.93.73-1.9,1.4-2.87,2.06s-2,1.28-3,1.85a27.06,27.06,0,0,1-3.2,1.56.91.91,0,0,1-1.18-.52.89.89,0,0,1,.2-1,25.66,25.66,0,0,1,2.69-2.33c.94-.73,1.91-1.4,2.89-2.05s2-1.27,3-1.83a26.55,26.55,0,0,1,3.22-1.55.88.88,0,0,1,.94,1.43Zm52.33,36.34-9.29,6.17a40.76,40.76,0,0,0-2.14-9.44L483,331A38.64,38.64,0,0,1,484.6,340.69Zm12.72-8.47-8.45,5.62c0-.28-.07-.58-.11-.89a42.32,42.32,0,0,0-1.67-7.67c-.07-.21-.16-.46-.27-.74l8.77-5.71A37.35,37.35,0,0,1,497.32,332.22Zm11.72-7.8-7.49,5c0-.2-.05-.42-.08-.64a42.73,42.73,0,0,0-1.69-7.35c-.1-.29-.23-.66-.39-1.06l3.49-2.27,5.65,1.9A23.94,23.94,0,0,1,509,324.42ZM475.49,392.6a3.14,3.14,0,0,1-.67,1,4.17,4.17,0,0,1-.86.72,4.42,4.42,0,0,1-1,.49,3.66,3.66,0,0,1-1.19.21,1,1,0,0,1-1-1.06,1.11,1.11,0,0,1,.07-.37,3.4,3.4,0,0,1,.66-1,4.5,4.5,0,0,1,.85-.73,4.21,4.21,0,0,1,1-.51,3.31,3.31,0,0,1,1.18-.22,1.07,1.07,0,0,1,1.06,1.09A1.06,1.06,0,0,1,475.49,392.6Zm30.45-24c-1.49,1.29-3.06,2.47-4.65,3.62s-3.21,2.26-4.84,3.35-3.3,2.12-5,3.11-3.4,2-5.17,2.84a.86.86,0,0,1-1.15-.39.87.87,0,0,1,.21-1c1.49-1.29,3.06-2.48,4.64-3.63s3.2-2.27,4.83-3.36,3.29-2.13,5-3.14,3.39-2,5.16-2.85a.9.9,0,0,1,1,1.49Zm19.81-7.29a11,11,0,0,1-1.59,1.61,17.82,17.82,0,0,1-1.78,1.32,16.4,16.4,0,0,1-1.92,1.09,10.74,10.74,0,0,1-2.11.82.89.89,0,0,1-1.1-.65.9.9,0,0,1,.16-.78,10.47,10.47,0,0,1,1.58-1.61,18.85,18.85,0,0,1,3.68-2.46,11.07,11.07,0,0,1,2.1-.83.94.94,0,0,1,1,1.49Zm34.7-26.7c-2.19,1.56-4.42,3.06-6.66,4.54s-4.52,2.93-6.82,4.32-4.61,2.78-7,4a.85.85,0,0,1-.94-1.42c2.1-1.7,4.27-3.29,6.46-4.84s4.42-3.07,6.66-4.57q2.28-1.49,4.58-2.94l.53.12c1.06.25,2.13.5,3.21.73Zm-59.4,94.09c1.5-1.29,3.06-2.48,4.65-3.64s3.2-2.26,4.83-3.35,3.29-2.14,5-3.14,3.39-2,5.16-2.85a.9.9,0,0,1,1,1.49c-1.5,1.29-3.06,2.47-4.65,3.62s-3.21,2.26-4.84,3.34-3.3,2.13-5,3.12-3.4,2-5.17,2.84a.87.87,0,0,1-1.16-.4A.88.88,0,0,1,501.05,428.74ZM514.23,432a1.11,1.11,0,0,1-.09.4,3.12,3.12,0,0,1-.66,1,4.91,4.91,0,0,1-.86.72,5.46,5.46,0,0,1-1,.49,3.41,3.41,0,0,1-1.19.2,1,1,0,0,1-1-1.05,1.11,1.11,0,0,1,.08-.37,3.22,3.22,0,0,1,.66-1,4.6,4.6,0,0,1,1.84-1.24,3.29,3.29,0,0,1,1.17-.22A1.08,1.08,0,0,1,514.23,432ZM370.58,501.61a10.94,10.94,0,0,1-1.59,1.6,18.71,18.71,0,0,1-1.78,1.33,17.39,17.39,0,0,1-1.93,1.09,10.28,10.28,0,0,1-2.11.82.91.91,0,0,1-1.1-.65.93.93,0,0,1,.16-.78,11.47,11.47,0,0,1,1.58-1.61,18.85,18.85,0,0,1,3.68-2.46,11.16,11.16,0,0,1,2.11-.83.95.95,0,0,1,1,1.49Zm43.14,13.17c-1.5,1.29-3.06,2.47-4.65,3.62s-3.21,2.26-4.84,3.35-3.3,2.12-5,3.11-3.4,2-5.18,2.84a.86.86,0,0,1-.94-1.42c1.5-1.3,3.06-2.49,4.65-3.64s3.2-2.27,4.83-3.36,3.29-2.13,5-3.14,3.39-2,5.16-2.85a.9.9,0,0,1,1,1.49Zm2.48-19.43a28.28,28.28,0,0,1-2.7,2.34c-.93.72-1.91,1.39-2.89,2.05s-2,1.26-3,1.82a25.67,25.67,0,0,1-3.21,1.55.88.88,0,0,1-1.14-.5.9.9,0,0,1,.19-.93,26.82,26.82,0,0,1,2.69-2.34c.93-.74,1.9-1.41,2.88-2.07s2-1.27,3-1.85a28.71,28.71,0,0,1,3.2-1.56.92.92,0,0,1,1,1.49ZM408,481.67c-4.23,2.77-8.46,5.54-12.74,8.23l-6.43,4c-2.16,1.31-4.31,2.65-6.49,3.92a.86.86,0,0,1-1.17-.3.84.84,0,0,1,.23-1.12c2-1.51,4.11-2.95,6.16-4.43l6.24-4.32c4.15-2.88,8.36-5.68,12.57-8.47s8.45-5.55,12.73-8.25l6.42-4c2.17-1.31,4.31-2.66,6.49-3.93a.89.89,0,0,1,1,1.48c-2,1.51-4.11,2.95-6.17,4.42l-6.23,4.31C416.38,476.09,412.17,478.88,408,481.67ZM437,492.86a3.14,3.14,0,0,1-.67,1,4.5,4.5,0,0,1-.85.72,4.86,4.86,0,0,1-1,.48,3.23,3.23,0,0,1-1.19.21,1,1,0,0,1-1-1.05.91.91,0,0,1,.08-.37,3.05,3.05,0,0,1,.66-1,4.65,4.65,0,0,1,1.83-1.24,3.18,3.18,0,0,1,1.18-.22,1.07,1.07,0,0,1,1.06,1.09A1.1,1.1,0,0,1,437,492.86Zm8-21.17c-1.5,1.28-3.06,2.47-4.65,3.62s-3.21,2.26-4.84,3.34-3.3,2.13-5,3.12-3.4,2-5.17,2.84a.86.86,0,0,1-.94-1.43c1.49-1.29,3.05-2.48,4.64-3.64s3.2-2.26,4.83-3.35,3.29-2.14,5-3.14,3.39-2,5.16-2.85a.9.9,0,0,1,1.2.41A.88.88,0,0,1,445,471.69Zm3.59-21.47a3.06,3.06,0,0,1-.66,1,4.76,4.76,0,0,1-1.86,1.2,3.19,3.19,0,0,1-1.19.21,1,1,0,0,1-1-1.06,1.23,1.23,0,0,1,.08-.37,3.34,3.34,0,0,1,.66-1,4.39,4.39,0,0,1,.84-.72,4.49,4.49,0,0,1,1-.51,3.09,3.09,0,0,1,1.17-.22,1.07,1.07,0,0,1,1.07,1.08A.9.9,0,0,1,448.6,450.22Zm8.58,24.26a3.14,3.14,0,0,1-.67,1,4.76,4.76,0,0,1-1.86,1.2,3.19,3.19,0,0,1-1.19.21,1,1,0,0,1-1-1.05,1.11,1.11,0,0,1,.07-.37,3.4,3.4,0,0,1,.66-1,4.17,4.17,0,0,1,.85-.73,4.21,4.21,0,0,1,1-.51,3.1,3.1,0,0,1,1.18-.22,1.07,1.07,0,0,1,1.06,1.09A1.1,1.1,0,0,1,457.18,474.48Zm5.53-8.42a1,1,0,0,1-1.15-.67,1,1,0,0,1,.17-.82,10.46,10.46,0,0,1,1.59-1.6,16.48,16.48,0,0,1,1.78-1.33,17.26,17.26,0,0,1,1.92-1.09,10.74,10.74,0,0,1,2.11-.82.91.91,0,0,1,.95,1.43,11,11,0,0,1-1.59,1.61,18.09,18.09,0,0,1-3.68,2.46A11.07,11.07,0,0,1,462.71,466.06Zm8.57,21.7a3.4,3.4,0,0,1-.66,1,4.5,4.5,0,0,1-.85.73,4.21,4.21,0,0,1-1,.51,3.31,3.31,0,0,1-1.18.22,1.07,1.07,0,0,1-1.06-1.09,1.06,1.06,0,0,1,.08-.4,3.14,3.14,0,0,1,.67-1,4.51,4.51,0,0,1,.86-.72,4.89,4.89,0,0,1,1-.49,3.41,3.41,0,0,1,1.19-.2,1,1,0,0,1,1,1.05A1.11,1.11,0,0,1,471.28,487.76Zm9.48-43.55A29.41,29.41,0,0,1,478,446.6c-1,.74-1.95,1.43-2.95,2.11s-2,1.3-3.08,1.89a27.62,27.62,0,0,1-3.28,1.6.91.91,0,0,1-1-1.48,26.73,26.73,0,0,1,2.76-2.38c1-.74,1.95-1.43,3-2.1s2-1.29,3.1-1.87a26.14,26.14,0,0,1,3.28-1.59.86.86,0,0,1,1.13.49A.88.88,0,0,1,480.76,444.21Zm-1.45-12.87a11.07,11.07,0,0,1-2.1.83.94.94,0,0,1-1-1.49,10.46,10.46,0,0,1,1.59-1.6,16.48,16.48,0,0,1,1.78-1.33,17.26,17.26,0,0,1,1.92-1.09,10.74,10.74,0,0,1,2.11-.82.9.9,0,0,1,.94,1.43,10.47,10.47,0,0,1-1.58,1.61,18.85,18.85,0,0,1-3.68,2.46Zm16.39,37.54a11.57,11.57,0,0,1-1.63,1.65,17.1,17.1,0,0,1-1.81,1.36,18.27,18.27,0,0,1-2,1.15,11.62,11.62,0,0,1-2.15.86.94.94,0,0,1-1.15-.66,1,1,0,0,1,.17-.83,12,12,0,0,1,1.64-1.63,16.79,16.79,0,0,1,1.82-1.35,19.27,19.27,0,0,1,2-1.13,11.7,11.7,0,0,1,2.16-.85.9.9,0,0,1,.94,1.43Zm19.48-23c-5.1,3.94-10.41,7.56-15.77,11.11s-10.81,7-16.44,10.1a.86.86,0,0,1-.94-1.43c5.1-3.94,10.4-7.58,15.75-11.14s10.8-7,16.42-10.12a.9.9,0,0,1,1.22.34A.88.88,0,0,1,515.18,445.92Zm34.32-8.09a.86.86,0,0,1,.94,1.43c-5.1,3.94-10.4,7.58-15.75,11.14s-10.79,7-16.42,10.12a.89.89,0,0,1-1-1.48c5.11-3.94,10.42-7.56,15.77-11.11S543.87,441,549.5,437.83Zm-21.25-27.55a1.06,1.06,0,0,1,.08-.4,3.31,3.31,0,0,1,.67-1,4.76,4.76,0,0,1,1.86-1.2,3.19,3.19,0,0,1,1.19-.21,1,1,0,0,1,1,1.06,1.16,1.16,0,0,1-.07.37,3.53,3.53,0,0,1-.66,1,4.9,4.9,0,0,1-.85.73,4.18,4.18,0,0,1-1,.5,3.1,3.1,0,0,1-1.18.22A1.06,1.06,0,0,1,528.25,410.28Zm10.27,6.55a10.11,10.11,0,0,1-1.58,1.62,17.38,17.38,0,0,1-1.76,1.34,19.16,19.16,0,0,1-1.92,1.11,11.07,11.07,0,0,1-2.1.83,1,1,0,0,1-1.15-.67,1,1,0,0,1,.17-.82,10.94,10.94,0,0,1,1.59-1.6,16.39,16.39,0,0,1,1.78-1.32,17.33,17.33,0,0,1,1.92-1.1,11.4,11.4,0,0,1,2.11-.82.9.9,0,0,1,1.1.65A.86.86,0,0,1,538.52,416.83Zm15.64-21.89a3.14,3.14,0,0,1-.67,1,4.91,4.91,0,0,1-.86.72,4.86,4.86,0,0,1-1,.48,3.19,3.19,0,0,1-1.19.21,1,1,0,0,1-1-1,1.11,1.11,0,0,1,.07-.37,3.4,3.4,0,0,1,.66-1,4.5,4.5,0,0,1,.85-.73,4.21,4.21,0,0,1,1-.51,3.31,3.31,0,0,1,1.18-.22,1.07,1.07,0,0,1,1.06,1.09A1.1,1.1,0,0,1,554.16,394.94Zm5.43-15.48c-2,1.5-4.11,2.94-6.17,4.41l-6.24,4.32c-4.16,2.87-8.37,5.66-12.58,8.46s-8.46,5.53-12.75,8.22l-6.42,4c-2.17,1.31-4.31,2.65-6.5,3.93a.86.86,0,0,1-.94-1.43c2-1.51,4.11-2.95,6.17-4.43l6.23-4.32c4.16-2.87,8.37-5.67,12.58-8.47s8.45-5.55,12.73-8.24l6.42-4c2.16-1.31,4.3-2.65,6.49-3.93a.89.89,0,0,1,1.22.32A.9.9,0,0,1,559.59,379.46Z" style="fill:#10294c;"/><path d="M427.21,405.13a24.42,24.42,0,0,1,4.43,8.28,36.76,36.76,0,0,1,1.55,8.91c.05.27.09.54.15.77l.11-.07,4.76-3.16q4.82-3.14,9.7-6.16c1.63-1,3.26-2,4.92-3s3.29-2,5-2.9l2.5-1.43,1.26-.69c.1-.06.24-.13.29-.17l.17-.09a2.13,2.13,0,0,0,.3-.3,3.89,3.89,0,0,0-.19-4.32l0,0a.54.54,0,0,1,0-.61c-9.75-5.43-29.63-6.54-48.85-1.64a20.1,20.1,0,0,1,6.32,1.17A18.2,18.2,0,0,1,427.21,405.13Z" style="fill:#fdb813;"/><path d="M464,401.45a5.57,5.57,0,0,1,.54,1.39,4.9,4.9,0,0,1-.36,3.49,3.81,3.81,0,0,1-.59.81l-.39.36c-.13.12-.2.16-.3.24l-1.13.88-2.3,1.73c-1.52,1.15-3.07,2.27-4.62,3.39s-3.11,2.23-4.67,3.33q-4.71,3.27-9.49,6.44l-4.81,3.13-.37.25-.45.26-.52.24-.62.2a3.81,3.81,0,0,1-1.64.07,3.47,3.47,0,0,1-1.68-.8,4.82,4.82,0,0,1-1.35-2.21,9.16,9.16,0,0,1-.37-1.8v0a1,1,0,0,1,0-.17,33.12,33.12,0,0,0-1.08-8.14,21.49,21.49,0,0,0-3.3-7.28,16.19,16.19,0,0,0-6-5.15,23.18,23.18,0,0,0-8-2.16h0a.66.66,0,0,1-.58-.49A82.66,82.66,0,0,0,390.2,408c-26,15.83-75.74,47.85-75.74,47.85s-74.13,45.87-98.69,63.9a58.08,58.08,0,0,0-11.15,11.52,11.79,11.79,0,0,1,3.5-1.09,14.87,14.87,0,0,1,5,.1,19.84,19.84,0,0,1,4.75,1.48,22.06,22.06,0,0,1,4.3,2.51,24.08,24.08,0,0,1,6.69,7.43,22.46,22.46,0,0,1,2.89,9.59h0v.17s0-.11,0-.16a8.89,8.89,0,0,1-.68,4.7,10.66,10.66,0,0,1-2.71,3.65c-.13.12-.32.28-.49.41l-.38.27-.75.51-1.51,1-3,2.05q-6,4.06-12.13,8l-6.11,4c-.51.33-1,.65-1.6,1a9.74,9.74,0,0,1-2,.93l-.67.16a4.1,4.1,0,0,1-.79,0,3.35,3.35,0,0,1-1.59-.5,5.11,5.11,0,0,1-1.69-1.93c-.16-.32-.32-.63-.45-.95l-.18-.46c-.06-.16-.12-.32-.17-.42l-.29-.7a5.38,5.38,0,0,0-.38-.66,6.48,6.48,0,0,0-2.16-2.1,11.35,11.35,0,0,0-6.44-1.21h-.06a.75.75,0,0,1-.26,0c-5.36,18.29-1.8,30.73,21.53,15.22,0,0,124.64-77.56,154.15-97.13s91.77-60.75,91.77-60.75C470,415.49,471.3,406.81,464,401.45Zm-169,113.1-36.39,24.21a3,3,0,0,1-4.74-2.49c0-3.1-1.33-9.37-2.25-10.84a3,3,0,0,1,.92-4.16l37-24.12a2.27,2.27,0,0,1,1.07-.36c2.33-.14,3.25,2.52,3.69,3.8C294.45,500.71,298.24,512.35,295.06,514.55Zm50.66-33.42-36.39,24.21a3,3,0,0,1-4.74-2.49c0-3.1-1.34-9.38-2.25-10.84a3.05,3.05,0,0,1,.92-4.17l37.05-24.11a2.27,2.27,0,0,1,1.07-.36c2.34-.13,3.25,2.52,3.69,3.8C345.11,467.29,348.9,478.93,345.72,481.13Zm50.42-32.7-36.4,24.22a3,3,0,0,1-1.69.51,3.15,3.15,0,0,1-1.43-.35,3.05,3.05,0,0,1-1.61-2.66c0-3.09-1.34-9.37-2.26-10.83a3.07,3.07,0,0,1,.92-4.17L390.72,431a2.26,2.26,0,0,1,1.08-.35c2.33-.14,3.25,2.52,3.69,3.81C395.53,434.6,399.31,446.24,396.14,448.43ZM425,437.12a7.85,7.85,0,0,1-3.47,5.37L412,448.44a3.62,3.62,0,0,1-1.91.56,3.26,3.26,0,0,1-1.66-.45,3.14,3.14,0,0,1-1.52-3l0-.74c.06-1.07.13-2.17.18-3.35l-.28.19a3.21,3.21,0,0,1-5-2.68,24.62,24.62,0,0,0-3.51-13.1,3.22,3.22,0,0,1,.93-4.44l16.89-11h0a3.21,3.21,0,0,1,2.47-.45,3.17,3.17,0,0,1,2,1.45c2,3.24,3.33,8.28,4,15C425.23,431.46,425.31,434.87,425,437.12Z" style="fill:#00acdc;"/><path d="M417.5,414.88l-14.77,9.65a28.77,28.77,0,0,1,3.52,12.24l.41-.28a3.24,3.24,0,0,1,1.77-.53,3.12,3.12,0,0,1,1.51.39,3.3,3.3,0,0,1,1.7,3c0,1.55-.08,2.92-.15,4.22l7.6-4.78a3.43,3.43,0,0,0,1.48-2.33,42.39,42.39,0,0,0-.28-9.57A39.42,39.42,0,0,0,417.5,414.88Z" style="fill:#00acdc;"/><path d="M383.35,441.13c.16.39.29.76.39,1.06a43.46,43.46,0,0,1,1.69,7.35c0,.22.05.43.08.64l7.49-5a37.06,37.06,0,0,0-1.69-9.26Z" style="fill:#fdb813;"/><path d="M370.77,449.31c.12.28.21.54.28.74a42.32,42.32,0,0,1,1.67,7.67c0,.32.08.61.11.9l8.45-5.63a37.35,37.35,0,0,0-1.73-9.39Z" style="fill:#fdb813;"/><path d="M357.12,458.2a40.13,40.13,0,0,1,2.15,9.44l9.29-6.18a38.71,38.71,0,0,0-1.59-9.67Z" style="fill:#fdb813;"/><path d="M332.93,473.82c.16.39.29.77.39,1.06a41.81,41.81,0,0,1,1.69,7.35c0,.22.06.43.08.64l7.49-5a37,37,0,0,0-1.68-9.26Z" style="fill:#fdb813;"/><path d="M320.36,482c.11.28.2.54.27.74a42.32,42.32,0,0,1,1.67,7.67c0,.32.08.62.11.9l8.46-5.63a37.94,37.94,0,0,0-1.74-9.39Z" style="fill:#fdb813;"/><path d="M306.71,490.89a40.64,40.64,0,0,1,2.14,9.44l9.29-6.18a38.78,38.78,0,0,0-1.59-9.67Z" style="fill:#fdb813;"/><path d="M282.27,507.24c.17.39.29.76.4,1.06a42.77,42.77,0,0,1,1.68,7.35l.09.64,7.49-5a37.52,37.52,0,0,0-1.69-9.26Z" style="fill:#fdb813;"/><path d="M269.7,515.43c.11.28.2.53.27.74a41.44,41.44,0,0,1,1.68,7.67c0,.31.07.61.1.89l8.46-5.62a37.47,37.47,0,0,0-1.74-9.4Z" style="fill:#fdb813;"/><path d="M256.05,524.31a40.13,40.13,0,0,1,2.15,9.44l9.28-6.18a38.78,38.78,0,0,0-1.59-9.67Z" style="fill:#fdb813;"/><path d="M189.13,567.33a11.31,11.31,0,0,1,3.9.88,8.74,8.74,0,0,1,3.27,2.59,8.52,8.52,0,0,1,.61.87l.51.92c.29.58.5,1,.77,1.44a2.14,2.14,0,0,0,.7.74c.07.05.08,0,.12,0l.12,0,.21-.07a7.48,7.48,0,0,0,1.23-.72c.45-.31.93-.67,1.42-1l5.86-4.26q5.88-4.22,11.8-8.36l3-2.06,1.48-1,.75-.52.36-.25.2-.17a6.4,6.4,0,0,0,1.57-2.14,4.46,4.46,0,0,0,.38-2.38v-.1a.17.17,0,0,0,0-.07,19.41,19.41,0,0,0-2.13-8,20.91,20.91,0,0,0-2.3-3.55A22.15,22.15,0,0,0,220,537a21.29,21.29,0,0,0-7.46-4.24,12.51,12.51,0,0,0-8.49.11h0a.53.53,0,0,1-.54-.08,127,127,0,0,0-17.81,34.88A13.48,13.48,0,0,1,189.13,567.33Z" style="fill:#fdb813;"/><path d="M290.72,496.79a2.27,2.27,0,0,0-1.07.36l-37,24.12a3,3,0,0,0-.92,4.16c.92,1.47,2.22,7.74,2.25,10.84a3.05,3.05,0,0,0,4.74,2.49l36.39-24.21c3.18-2.2-.61-13.84-.65-14C294,499.31,293.05,496.65,290.72,496.79Zm-23.24,30.78-9.28,6.18a40.13,40.13,0,0,0-2.15-9.44l9.84-6.41A38.78,38.78,0,0,1,267.48,527.57Zm12.73-8.46-8.46,5.62c0-.28-.06-.58-.1-.89a41.44,41.44,0,0,0-1.68-7.67c-.07-.21-.16-.46-.27-.74l8.77-5.72A37.47,37.47,0,0,1,280.21,519.11Zm11.72-7.8-7.49,5-.09-.64a42.77,42.77,0,0,0-1.68-7.35c-.11-.3-.23-.67-.4-1.06l8-5.19A37.52,37.52,0,0,1,291.93,511.31Z" style="fill:#10294c;"/><path d="M341.38,463.37a2.27,2.27,0,0,0-1.07.36l-37.05,24.11a3.05,3.05,0,0,0-.92,4.17c.91,1.46,2.22,7.74,2.25,10.84a3.05,3.05,0,0,0,4.74,2.49l36.39-24.21c3.18-2.2-.61-13.84-.65-14C344.63,465.89,343.72,463.24,341.38,463.37Zm-23.24,30.78-9.29,6.18a40.64,40.64,0,0,0-2.14-9.44l9.84-6.41A38.78,38.78,0,0,1,318.14,494.15Zm12.73-8.47-8.46,5.63c0-.28-.07-.58-.11-.9a42.32,42.32,0,0,0-1.67-7.67c-.07-.2-.16-.46-.27-.74l8.77-5.71A37.94,37.94,0,0,1,330.87,485.68Zm11.71-7.79-7.49,5c0-.21,0-.42-.08-.64a41.81,41.81,0,0,0-1.69-7.35c-.1-.29-.23-.67-.39-1.06l8-5.19A37,37,0,0,1,342.58,477.89Z" style="fill:#10294c;"/><path d="M231.73,551.23h0s0,.11,0,.16Z" style="fill:#10294c;"/><path d="M185.56,569a11.35,11.35,0,0,1,6.44,1.21,6.48,6.48,0,0,1,2.16,2.1,5.38,5.38,0,0,1,.38.66l.29.7c0,.1.11.26.17.42l.18.46c.13.32.29.63.45.95a5.11,5.11,0,0,0,1.69,1.93,3.35,3.35,0,0,0,1.59.5,4.1,4.1,0,0,0,.79,0l.67-.16a9.74,9.74,0,0,0,2-.93c.57-.33,1.09-.65,1.6-1l6.11-4q6.09-4,12.13-8l3-2.05,1.51-1,.75-.51.38-.27c.17-.13.36-.29.49-.41a10.66,10.66,0,0,0,2.71-3.65,8.89,8.89,0,0,0,.68-4.7,22.46,22.46,0,0,0-2.89-9.59,24.08,24.08,0,0,0-6.69-7.43,22.06,22.06,0,0,0-4.3-2.51,19.84,19.84,0,0,0-4.75-1.48,14.87,14.87,0,0,0-5-.1,11.79,11.79,0,0,0-3.5,1.09,11.5,11.5,0,0,0-1.13.66.56.56,0,0,0-.2.66.65.65,0,0,0,.18.22.53.53,0,0,0,.54.08h0a12.51,12.51,0,0,1,8.49-.11A21.29,21.29,0,0,1,220,537a22.15,22.15,0,0,1,2.95,3.1,20.91,20.91,0,0,1,2.3,3.55,19.41,19.41,0,0,1,2.13,8,.17.17,0,0,1,0,.07v.1a4.46,4.46,0,0,1-.38,2.38,6.4,6.4,0,0,1-1.57,2.14l-.2.17-.36.25-.75.52-1.48,1-3,2.06q-5.93,4.14-11.8,8.36L202,573c-.49.35-1,.71-1.42,1a7.48,7.48,0,0,1-1.23.72l-.21.07-.12,0s0,0-.12,0a2.14,2.14,0,0,1-.7-.74c-.27-.43-.48-.86-.77-1.44l-.51-.92a8.52,8.52,0,0,0-.61-.87,8.74,8.74,0,0,0-3.27-2.59,11.31,11.31,0,0,0-3.9-.88,13.48,13.48,0,0,0-3.47.31,2.21,2.21,0,0,0-.37.08.66.66,0,0,0,0,1.28.75.75,0,0,0,.26,0Z" style="fill:#10294c;"/><path d="M410.48,399.93h0a23.18,23.18,0,0,1,8,2.16,16.19,16.19,0,0,1,6,5.15,21.49,21.49,0,0,1,3.3,7.28,33.12,33.12,0,0,1,1.08,8.14,1,1,0,0,0,0,.17v0a9.16,9.16,0,0,0,.37,1.8,4.82,4.82,0,0,0,1.35,2.21,3.47,3.47,0,0,0,1.68.8,3.81,3.81,0,0,0,1.64-.07l.62-.2.52-.24.45-.26.37-.25,4.81-3.13q4.78-3.17,9.49-6.44c1.56-1.1,3.12-2.2,4.67-3.33s3.1-2.24,4.62-3.39l2.3-1.73,1.13-.88c.1-.08.17-.12.3-.24l.39-.36a3.81,3.81,0,0,0,.59-.81,4.9,4.9,0,0,0,.36-3.49,5.57,5.57,0,0,0-.54-1.39,4.53,4.53,0,0,0-1.16-1.42.55.55,0,0,0-.67,0,.52.52,0,0,0-.14.16.54.54,0,0,0,0,.61l0,0a3.89,3.89,0,0,1,.19,4.32,2.13,2.13,0,0,1-.3.3l-.17.09s-.19.11-.29.17l-1.26.69-2.5,1.43c-1.67.94-3.32,1.92-5,2.9s-3.29,2-4.92,3q-4.89,3-9.7,6.16L433.45,423l-.11.07c-.06-.23-.1-.5-.15-.77a36.76,36.76,0,0,0-1.55-8.91,24.42,24.42,0,0,0-4.43-8.28,18.2,18.2,0,0,0-7.68-5.42,20.1,20.1,0,0,0-6.32-1.17,24.42,24.42,0,0,0-2.71,0,.66.66,0,0,0-.62.6.69.69,0,0,0,0,.25A.66.66,0,0,0,410.48,399.93Z" style="fill:#10294c;"/><path d="M391.8,430.68a2.26,2.26,0,0,0-1.08.35l-37.05,24.12a3.07,3.07,0,0,0-.92,4.17c.92,1.46,2.23,7.74,2.26,10.83a3.05,3.05,0,0,0,1.61,2.66,3.15,3.15,0,0,0,1.43.35,3,3,0,0,0,1.69-.51l36.4-24.22c3.17-2.19-.61-13.83-.65-13.94C395.05,433.2,394.13,430.54,391.8,430.68Zm-23.24,30.78-9.29,6.18a40.13,40.13,0,0,0-2.15-9.44l9.85-6.41A38.71,38.71,0,0,1,368.56,461.46ZM381.28,453l-8.45,5.63c0-.29-.07-.58-.11-.9a42.32,42.32,0,0,0-1.67-7.67c-.07-.2-.16-.46-.28-.74l8.78-5.71A37.35,37.35,0,0,1,381.28,453ZM393,445.2l-7.49,5c0-.21-.05-.42-.08-.64a43.46,43.46,0,0,0-1.69-7.35c-.1-.3-.23-.67-.39-1.06l8-5.19A37.06,37.06,0,0,1,393,445.2Z" style="fill:#10294c;"/><path d="M420.68,411.44a3.17,3.17,0,0,0-2-1.45,3.21,3.21,0,0,0-2.47.45h0l-16.89,11a3.22,3.22,0,0,0-.93,4.44,24.62,24.62,0,0,1,3.51,13.1,3.21,3.21,0,0,0,5,2.68l.28-.19c0,1.18-.12,2.28-.18,3.35l0,.74a3.14,3.14,0,0,0,1.52,3,3.26,3.26,0,0,0,1.66.45,3.62,3.62,0,0,0,1.91-.56l9.46-5.95a7.85,7.85,0,0,0,3.47-5.37c.36-2.25.28-5.66-.25-10.72C424,419.72,422.65,414.68,420.68,411.44Zm-.11,25a3.43,3.43,0,0,1-1.48,2.33l-7.6,4.78c.07-1.3.13-2.67.15-4.22a3.3,3.3,0,0,0-1.7-3,3.12,3.12,0,0,0-1.51-.39,3.24,3.24,0,0,0-1.77.53l-.41.28a28.77,28.77,0,0,0-3.52-12.24l14.77-9.65a39.42,39.42,0,0,1,2.79,12A42.39,42.39,0,0,1,420.57,436.43Z" style="fill:#10294c;"/><path d="M439.57,399.29a17.16,17.16,0,0,1,4.48-.87,23.23,23.23,0,0,1,4.49.13,17,17,0,0,1,4.4,1.07,10.55,10.55,0,0,1,3.93,2.6.62.62,0,0,1,0,.87.63.63,0,0,1-.32.15h0a21,21,0,0,1-4.43.18,32.3,32.3,0,0,1-4.17-.51c-1.38-.23-2.77-.51-4.17-.87a24.89,24.89,0,0,1-4.22-1.41h0a.72.72,0,0,1-.36-1A.71.71,0,0,1,439.57,399.29Z" style="fill:#fff;"/><path d="M428,399.63a4.73,4.73,0,0,1,.84-.84,4.39,4.39,0,0,1,.82-.53,5,5,0,0,1,1.67-.49A3.36,3.36,0,0,1,433,398a3.75,3.75,0,0,1,1.68,1.38,1,1,0,0,1,0,1.08h0a3.88,3.88,0,0,1-1.59,1.43,3.28,3.28,0,0,1-1.57.32,5,5,0,0,1-1.59-.3,4,4,0,0,1-1.57-1l-.34-.34A.73.73,0,0,1,428,399.63Z" style="fill:#fff;"/><path d="M338.54,272.16C307.87,291.7,322.3,317,354.85,296.57S369.2,252.63,338.54,272.16Z" style="fill:#10294c;"/><path d="M356.58,268.3c-5.36,3.54-10.67,7.17-15.77,11.1a.89.89,0,0,0,1,1.49c5.63-3.15,11-6.6,16.42-10.13q3.66-2.43,7.27-4.94a15.45,15.45,0,0,0-3.73-.85C360,266.07,358.3,267.17,356.58,268.3Z" style="fill:#f04e23;"/><path d="M364,270.15a1,1,0,0,0-.17.81.93.93,0,0,0,1.15.67,9.67,9.67,0,0,0,2.1-.83,16,16,0,0,0,1.92-1.11c.36-.24.71-.5,1.05-.76a9.69,9.69,0,0,0-2.24-2l-.44.26a19,19,0,0,0-1.78,1.32A11,11,0,0,0,364,270.15Z" style="fill:#f04e23;"/><path d="M331.46,295.4c1.78-.87,3.49-1.84,5.18-2.84s3.34-2.05,5-3.12,3.26-2.18,4.85-3.34,3.15-2.34,4.65-3.62a.91.91,0,0,0,.22-1.08.9.9,0,0,0-1.2-.41c-1.78.87-3.48,1.84-5.17,2.85s-3.33,2.06-5,3.14-3.25,2.19-4.83,3.35-3.15,2.35-4.65,3.64a.86.86,0,0,0,.94,1.43Z" style="fill:#00acdc;"/><path d="M341.09,300.83a27,27,0,0,0,2.7-2.33.9.9,0,0,0,.2-1,.92.92,0,0,0-1.18-.51,25.72,25.72,0,0,0-3.21,1.56c-1,.57-2,1.2-3,1.85s-1.94,1.33-2.87,2.06c-.64.5-1.26,1-1.86,1.58a22.14,22.14,0,0,0,4.69-.14c.56-.33,1.12-.68,1.67-1C339.19,302.23,340.16,301.56,341.09,300.83Z" style="fill:#f04e23;"/><path d="M362.32,280.91a4.21,4.21,0,0,0-1,.51,4.5,4.5,0,0,0-.85.73,3.4,3.4,0,0,0-.66,1,1.11,1.11,0,0,0-.07.37,1,1,0,0,0,1,1.05,3.4,3.4,0,0,0,1.18-.2,4.5,4.5,0,0,0,1-.49,4.78,4.78,0,0,0,.85-.72,3.14,3.14,0,0,0,.67-1,1.06,1.06,0,0,0,.08-.4,1.07,1.07,0,0,0-1.06-1.09A3.31,3.31,0,0,0,362.32,280.91Z" style="fill:#f04e23;"/><path d="M335.16,560.94c25.59-19.32,43.14,7.74,20.89,23.7C330.88,602.7,318.35,573.63,335.16,560.94Z" style="fill:#10294c;"/><path d="M351,558.22c-5.35,3.56-10.65,7.2-15.75,11.14a.86.86,0,0,0,.94,1.43c5.63-3.14,11.06-6.58,16.44-10.1,2.31-1.53,4.6-3.07,6.87-4.65a14.56,14.56,0,0,0-3.17-1.26C354.5,555.92,352.73,557.06,351,558.22Z" style="fill:#00acdc;"/><path d="M344.28,577.36a.86.86,0,0,0-1.17-.33c-4.4,2.45-8.67,5.09-12.9,7.81a13.76,13.76,0,0,0,1.91,2.19c4.05-2.75,8.05-5.57,11.93-8.57A.86.86,0,0,0,344.28,577.36Z" style="fill:#f04e23;"/><path d="M359.9,572.31a1,1,0,0,0-1-1.06,3.66,3.66,0,0,0-1.19.21,4.42,4.42,0,0,0-1,.49,4.11,4.11,0,0,0-.85.71,3.31,3.31,0,0,0-.67,1,1.06,1.06,0,0,0-.08.4,1.08,1.08,0,0,0,1.06,1.09,3.39,3.39,0,0,0,1.18-.22,4.87,4.87,0,0,0,1-.51,4.45,4.45,0,0,0,.84-.73,3.05,3.05,0,0,0,.66-1A.91.91,0,0,0,359.9,572.31Z" style="fill:#00acdc;"/><path d="M391.6,567.63c13.41-10.13,22.46,7.9,10.8,16.27C389.21,593.36,382.79,574.28,391.6,567.63Z" style="fill:#10294c;"/><path d="M391.81,585.37q3.75-2.64,7.4-5.44a.86.86,0,0,0-.94-1.43c-2.87,1.6-5.68,3.28-8.47,5A8.1,8.1,0,0,0,391.81,585.37Z" style="fill:#00acdc;"/><path d="M387.76,578.68c5.15-2.93,10.15-6.09,15.1-9.33l2.66-1.78a8.42,8.42,0,0,0-2.33-2l-2,1.27c-4.63,3.09-9.22,6.24-13.68,9.58A13.68,13.68,0,0,0,387.76,578.68Z" style="fill:#f04e23;"/><path d="M342.55,483.17l-56.62,36.31-.08.16a40,40,0,0,1,4.53,2.47s2.66,4.3,2.13,25.79c-.13,5.18-.4,9.29-.72,12.54a585.12,585.12,0,0,0,49.75-36.7s2.29-2.46,2.72-19.78S342.55,483.17,342.55,483.17Z" style="fill:#f04e23;"/><path d="M285.85,519.64l.08-.16,56.62-36.31s-7.23-5.06-40.2-16.07S262,456.19,262,456.19C244,464.51,222.1,478,202.81,490.9c7.61,1.85,19.52,5.2,37.71,11.27C266.74,510.93,279.84,516.65,285.85,519.64ZM275.66,492a89,89,0,0,1,12.08-7,2.42,2.42,0,0,1,1.38-.18,67.81,67.81,0,0,1,8.81,2.5,81.06,81.06,0,0,1,8.2,3.12.85.85,0,0,1,.1,1.48l-10.85,7a2.73,2.73,0,0,1-2.65.18,76.8,76.8,0,0,0-8.6-3.3c-4.24-1.42-6.77-2.09-8.22-2.42A.72.72,0,0,1,275.66,492Zm-36.82-11.58a89.24,89.24,0,0,1,12.09-7,2.42,2.42,0,0,1,1.38-.19,69.27,69.27,0,0,1,8.8,2.5,80.59,80.59,0,0,1,8.21,3.12.85.85,0,0,1,.1,1.49l-10.86,7a2.7,2.7,0,0,1-2.64.17,76.8,76.8,0,0,0-8.6-3.3c-4.25-1.41-6.78-2.09-8.22-2.41A.73.73,0,0,1,238.84,480.41Z" style="fill:#fdb813;"/><path d="M275.91,493.3c1.45.33,4,1,8.22,2.42a76.8,76.8,0,0,1,8.6,3.3,2.73,2.73,0,0,0,2.65-.18l10.85-7a.85.85,0,0,0-.1-1.48,81.06,81.06,0,0,0-8.2-3.12,67.81,67.81,0,0,0-8.81-2.5,2.42,2.42,0,0,0-1.38.18,89,89,0,0,0-12.08,7A.72.72,0,0,0,275.91,493.3Z" style="fill:#10294c;"/><path d="M290.38,522.11l-133,85.31s2.66,4.3,2.12,25.79c-.52,20.81-3.2,24.33-3.37,24.53,66.18-28.89,133-85.31,133-85.31s1.64-1.76,2.66-12c.32-3.25.59-7.36.72-12.54C293,526.41,290.38,522.11,290.38,522.11Z" style="fill:#10294c;"/><path d="M255.92,487.44a2.7,2.7,0,0,0,2.64-.17l10.86-7a.85.85,0,0,0-.1-1.49,80.59,80.59,0,0,0-8.21-3.12,69.27,69.27,0,0,0-8.8-2.5,2.42,2.42,0,0,0-1.38.19,89.24,89.24,0,0,0-12.09,7,.73.73,0,0,0,.26,1.32c1.44.32,4,1,8.22,2.41A76.8,76.8,0,0,1,255.92,487.44Z" style="fill:#10294c;"/><path d="M157.33,607.42l133-85.31a40,40,0,0,0-4.53-2.47c-6-3-19.11-8.71-45.33-17.47-18.19-6.07-30.1-9.42-37.71-11.27-9.49-2.3-12.31-2.27-12.31-2.27-52.73,24.3-132,84.52-133,85.31h0s-2.91,6-3.36,24.26,2.11,26.07,2.11,26.07,18,9.85,49.84,20.72,50,12.75,50,12.75h0c.17-.2,2.85-3.72,3.37-24.53C160,611.72,157.33,607.42,157.33,607.42Z" style="fill:#00acdc;"/><path d="M67.7,574.37a181.68,181.68,0,0,1,21,4.64c6.91,1.88,13.73,4,20.52,6.27q5.07,1.72,10.12,3.53c3.35,1.26,6.71,2.49,10,3.85A172.91,172.91,0,0,1,149,601.74a1.79,1.79,0,0,1-1.51,3.23h0c-6.56-2.54-13.24-4.9-19.92-7.23s-13.4-4.6-20.14-6.85c-3.35-1.16-6.72-2.27-10.08-3.39L87.2,584.12c-6.73-2.21-13.47-4.4-20.23-6.4h0a1.71,1.71,0,0,1,.74-3.34Z" style="fill:#10294c;"/><path d="M157,567.21a27.48,27.48,0,0,1-5.72-1.69,39,39,0,0,1-5.38-2.58c-.3-.17-.6-.36-.89-.54-5.38,3.49-10.22,6.64-14.22,9.26a101,101,0,0,1,12.5,4.93L158,567.36Z" style="fill:#fdb813;"/><path d="M186,540.83c1.82.63,3.61,1.35,5.37,2.1a28.49,28.49,0,0,1,3.09,1.62L207,536.68l-.82-.12a27.3,27.3,0,0,1-5.72-1.69,39.73,39.73,0,0,1-5.39-2.58c-.52-.3-1-.62-1.54-.95-4.1,2.57-8.28,5.22-12.48,7.88C182.72,539.72,184.37,540.26,186,540.83Z" style="fill:#fdb813;"/><path d="M152.84,561.39c1.81.63,3.6,1.35,5.37,2.1a30.9,30.9,0,0,1,3.26,1.72l12.87-8.06-1.29-.19a28.07,28.07,0,0,1-5.72-1.68,40.3,40.3,0,0,1-5.38-2.59l-1-.6c-4.26,2.74-8.38,5.41-12.28,7.93C150.08,560.45,151.47,560.9,152.84,561.39Z" style="fill:#fdb813;"/><path d="M168.88,551.14c1.82.63,3.6,1.35,5.37,2.1a29.66,29.66,0,0,1,3.42,1.82l13.25-8.3-.75-.11a28,28,0,0,1-5.73-1.68,40.89,40.89,0,0,1-5.38-2.59q-.76-.43-1.5-.93c-4.36,2.78-8.7,5.56-12.94,8.29C166.05,550.18,167.47,550.64,168.88,551.14Z" style="fill:#fdb813;"/><path d="M199.59,510.57l0,0a26.84,26.84,0,0,0,3.69,2.09c1.24.6,2.5,1.12,3.77,1.6a26.71,26.71,0,0,0,3.9,1.2,15.2,15.2,0,0,0,4.34.36h0a.68.68,0,0,0,.31-.11.64.64,0,0,0,.23-.35l.57.26-.57-.26a.63.63,0,0,0-.08-.53,11.64,11.64,0,0,0-3.34-3,17.73,17.73,0,0,0-3.93-1.75,22.43,22.43,0,0,0-4.21-.92,14.74,14.74,0,0,0-4.44.08.7.7,0,0,0-.46.29.71.71,0,0,0-.08.18h0A.71.71,0,0,0,199.59,510.57Z" style="fill:#10294c;"/><path d="M238.08,518.81a17.83,17.83,0,0,0-1.64-.9,2.13,2.13,0,0,0-1.35-.19c0-.28,0-.56,0-.84,0-4.88-.43-10.77-.43-10.77h0l-16.35,10.5a97.74,97.74,0,0,1,.48,10.62c0,.69,0,1.4-.08,2.11l-8.2,5.14a32.42,32.42,0,0,0-3.14-1.64c-1.76-.75-3.55-1.47-5.37-2.1s-3.63-1.24-5.49-1.78l-1.28-.37c-.14-2-.39-5.9-.39-8.83,0-1.69.08-3.38.18-4.91-26.59,15.67-82.22,52.3-82.64,52.62a2.24,2.24,0,0,0-.78,2.48,2.19,2.19,0,0,0,2.08,1.5c.1,0,2.49.14,11.37,3h0c.88.28,1.81.58,2.81.92,11.38,3.79,14.15,5.57,14.23,5.62a2.2,2.2,0,0,0,1.27.4,2.26,2.26,0,0,0,1.18-.33L238,522.51a2.22,2.22,0,0,0,.1-3.7ZM130.8,571.66c4-2.62,8.84-5.77,14.22-9.26.29.18.59.37.89.54a39,39,0,0,0,5.38,2.58,27.48,27.48,0,0,0,5.72,1.69l1,.15-14.74,9.23A101,101,0,0,0,130.8,571.66Zm62.74-40.32c.51.33,1,.65,1.54.95a39.73,39.73,0,0,0,5.39,2.58,27.3,27.3,0,0,0,5.72,1.69l.82.12-12.56,7.87a28.49,28.49,0,0,0-3.09-1.62c-1.76-.75-3.55-1.47-5.37-2.1-1.62-.57-3.27-1.11-4.93-1.61C185.26,536.56,189.44,533.91,193.54,531.34Zm-16,10.11q.74.49,1.5.93a40.89,40.89,0,0,0,5.38,2.59,28,28,0,0,0,5.73,1.68l.75.11-13.25,8.3a29.66,29.66,0,0,0-3.42-1.82c-1.77-.75-3.55-1.47-5.37-2.1-1.41-.5-2.83-1-4.26-1.4C168.86,547,173.2,544.23,177.56,541.45ZM161,552.09l1,.6a40.3,40.3,0,0,0,5.38,2.59,28.07,28.07,0,0,0,5.72,1.68l1.29.19-12.87,8.06a30.9,30.9,0,0,0-3.26-1.72c-1.77-.75-3.56-1.47-5.37-2.1-1.37-.49-2.76-.94-4.16-1.37C152.58,557.5,156.7,554.83,161,552.09Z" style="fill:#10294c;"/><path d="M297.24,537.08A2.22,2.22,0,0,1,296,533l32.41-20.78a2.22,2.22,0,0,1,3.4,1.61,47,47,0,0,1-.51,11,2.22,2.22,0,0,1-4.39-.64,58.63,58.63,0,0,0,.56-6.07l-29.08,18.64A2.18,2.18,0,0,1,297.24,537.08Z" style="fill:#fdb813;"/><path d="M234.67,506.11h0a7.54,7.54,0,0,0-1-.56,85,85,0,0,0-10.3-4c-4.13-1.38-6.84-2.14-8.57-2.56a14,14,0,0,0-2.79-.52c-11.92,5.49-16.07,10.27-16.34,10.5h0s-.37,2.53-.6,5.84c-.1,1.53-.18,3.22-.18,4.91,0,2.93.25,6.8.39,8.83l1.28.37c1.86.54,3.68,1.14,5.49,1.78s3.61,1.35,5.37,2.1a32.42,32.42,0,0,1,3.14,1.64l8.2-5.14c0-.71.07-1.42.08-2.11a97.74,97.74,0,0,0-.48-10.62Zm-19,9.63a.68.68,0,0,1-.31.11h0a15.2,15.2,0,0,1-4.34-.36,26.71,26.71,0,0,1-3.9-1.2c-1.27-.48-2.53-1-3.77-1.6a26.84,26.84,0,0,1-3.69-2.09l0,0a.77.77,0,0,1-.18-1,.7.7,0,0,1,.46-.29,14.74,14.74,0,0,1,4.44-.08,22.43,22.43,0,0,1,4.21.92,17.73,17.73,0,0,1,3.93,1.75,11.64,11.64,0,0,1,3.34,3,.63.63,0,0,1,.08.53A.64.64,0,0,1,215.64,515.74Z" style="fill:#fdb813;"/></svg>